<svg width="91" height="31" viewBox="0 0 91 31" fill="none" xmlns="http://www.w3.org/2000/svg">
<g clip-path="url(#clip0_3_152)">
<path d="M0.468109 0.47113L15.4475 8.76292L30.5206 0.47113L45.5 8.76292L60.4794 0.47113L75.4589 8.76292L90.5319 0.47113" stroke="#B78E56" stroke-miterlimit="10" stroke-linecap="round" stroke-linejoin="round"/>
<path d="M0.468109 7.72644L15.4475 16.0182L30.5206 7.72644L45.5 16.0182L60.4794 7.72644L75.4589 16.0182L90.5319 7.72644" stroke="#B78E56" stroke-miterlimit="10" stroke-linecap="round" stroke-linejoin="round"/>
<path d="M0.468109 14.9818L15.4475 23.2736L30.5206 14.9818L45.5 23.2736L60.4794 14.9818L75.4589 23.2736L90.5319 14.9818" stroke="#B78E56" stroke-miterlimit="10" stroke-linecap="round" stroke-linejoin="round"/>
<path d="M0.468109 22.1428L15.4475 30.5288L30.5206 22.1428L45.5 30.5288L60.4794 22.1428L75.4589 30.5288L90.5319 22.1428" stroke="#B78E56" stroke-miterlimit="10" stroke-linecap="round" stroke-linejoin="round"/>
</g>
<defs>
<clipPath id="clip0_3_152">
<rect width="91" height="31" fill="white"/>
</clipPath>
</defs>
</svg>
