<svg width="124" height="130" viewBox="0 0 124 130" fill="none" xmlns="http://www.w3.org/2000/svg">
<path d="M3.17948 5.91805C4.71597 5.91805 5.96153 4.68157 5.96153 3.15629C5.96153 1.63101 4.71597 0.394531 3.17948 0.394531C1.643 0.394531 0.397432 1.63101 0.397432 3.15629C0.397432 4.68157 1.643 5.91805 3.17948 5.91805Z" stroke="#B78E56" stroke-width="0.5" stroke-miterlimit="10" stroke-linecap="round" stroke-linejoin="round"/>
<path d="M3.17948 23.6722C4.71597 23.6722 5.96153 22.4357 5.96153 20.9104C5.96153 19.3852 4.71597 18.1487 3.17948 18.1487C1.643 18.1487 0.397432 19.3852 0.397432 20.9104C0.397432 22.4357 1.643 23.6722 3.17948 23.6722Z" stroke="#B78E56" stroke-width="0.5" stroke-miterlimit="10" stroke-linecap="round" stroke-linejoin="round"/>
<path d="M3.17948 41.2291C4.71597 41.2291 5.96153 39.9926 5.96153 38.4673C5.96153 36.942 4.71597 35.7056 3.17948 35.7056C1.643 35.7056 0.397432 36.942 0.397432 38.4673C0.397432 39.9926 1.643 41.2291 3.17948 41.2291Z" stroke="#B78E56" stroke-width="0.5" stroke-miterlimit="10" stroke-linecap="round" stroke-linejoin="round"/>
<path d="M3.17948 58.9833C4.71597 58.9833 5.96153 57.7468 5.96153 56.2215C5.96153 54.6963 4.71597 53.4598 3.17948 53.4598C1.643 53.4598 0.397432 54.6963 0.397432 56.2215C0.397432 57.7468 1.643 58.9833 3.17948 58.9833Z" stroke="#B78E56" stroke-width="0.5" stroke-miterlimit="10" stroke-linecap="round" stroke-linejoin="round"/>
<path d="M3.17948 76.5402C4.71597 76.5402 5.96153 75.3038 5.96153 73.7785C5.96153 72.2532 4.71597 71.0167 3.17948 71.0167C1.643 71.0167 0.397432 72.2532 0.397432 73.7785C0.397432 75.3038 1.643 76.5402 3.17948 76.5402Z" stroke="#B78E56" stroke-width="0.5" stroke-miterlimit="10" stroke-linecap="round" stroke-linejoin="round"/>
<path d="M3.17948 94.2944C4.71597 94.2944 5.96153 93.0579 5.96153 91.5326C5.96153 90.0074 4.71597 88.7709 3.17948 88.7709C1.643 88.7709 0.397432 90.0074 0.397432 91.5326C0.397432 93.0579 1.643 94.2944 3.17948 94.2944Z" stroke="#B78E56" stroke-width="0.5" stroke-miterlimit="10" stroke-linecap="round" stroke-linejoin="round"/>
<path d="M3.17948 111.851C4.71597 111.851 5.96153 110.615 5.96153 109.09C5.96153 107.564 4.71597 106.328 3.17948 106.328C1.643 106.328 0.397432 107.564 0.397432 109.09C0.397432 110.615 1.643 111.851 3.17948 111.851Z" stroke="#B78E56" stroke-width="0.5" stroke-miterlimit="10" stroke-linecap="round" stroke-linejoin="round"/>
<path d="M3.17948 129.605C4.71597 129.605 5.96153 128.369 5.96153 126.844C5.96153 125.318 4.71597 124.082 3.17948 124.082C1.643 124.082 0.397432 125.318 0.397432 126.844C0.397432 128.369 1.643 129.605 3.17948 129.605Z" stroke="#B78E56" stroke-width="0.5" stroke-miterlimit="10" stroke-linecap="round" stroke-linejoin="round"/>
<path d="M20.0705 5.91805C21.607 5.91805 22.8526 4.68157 22.8526 3.15629C22.8526 1.63101 21.607 0.394531 20.0705 0.394531C18.534 0.394531 17.2885 1.63101 17.2885 3.15629C17.2885 4.68157 18.534 5.91805 20.0705 5.91805Z" stroke="#B78E56" stroke-width="0.5" stroke-miterlimit="10" stroke-linecap="round" stroke-linejoin="round"/>
<path d="M20.0705 23.6722C21.607 23.6722 22.8526 22.4357 22.8526 20.9104C22.8526 19.3852 21.607 18.1487 20.0705 18.1487C18.534 18.1487 17.2885 19.3852 17.2885 20.9104C17.2885 22.4357 18.534 23.6722 20.0705 23.6722Z" stroke="#B78E56" stroke-width="0.5" stroke-miterlimit="10" stroke-linecap="round" stroke-linejoin="round"/>
<path d="M20.0705 41.2291C21.607 41.2291 22.8526 39.9926 22.8526 38.4673C22.8526 36.942 21.607 35.7056 20.0705 35.7056C18.534 35.7056 17.2885 36.942 17.2885 38.4673C17.2885 39.9926 18.534 41.2291 20.0705 41.2291Z" stroke="#B78E56" stroke-width="0.5" stroke-miterlimit="10" stroke-linecap="round" stroke-linejoin="round"/>
<path d="M20.0705 58.9833C21.607 58.9833 22.8526 57.7468 22.8526 56.2215C22.8526 54.6963 21.607 53.4598 20.0705 53.4598C18.534 53.4598 17.2885 54.6963 17.2885 56.2215C17.2885 57.7468 18.534 58.9833 20.0705 58.9833Z" stroke="#B78E56" stroke-width="0.5" stroke-miterlimit="10" stroke-linecap="round" stroke-linejoin="round"/>
<path d="M20.0705 76.5402C21.607 76.5402 22.8526 75.3038 22.8526 73.7785C22.8526 72.2532 21.607 71.0167 20.0705 71.0167C18.534 71.0167 17.2885 72.2532 17.2885 73.7785C17.2885 75.3038 18.534 76.5402 20.0705 76.5402Z" stroke="#B78E56" stroke-width="0.5" stroke-miterlimit="10" stroke-linecap="round" stroke-linejoin="round"/>
<path d="M20.0705 94.2944C21.607 94.2944 22.8526 93.0579 22.8526 91.5326C22.8526 90.0074 21.607 88.7709 20.0705 88.7709C18.534 88.7709 17.2885 90.0074 17.2885 91.5326C17.2885 93.0579 18.534 94.2944 20.0705 94.2944Z" stroke="#B78E56" stroke-width="0.5" stroke-miterlimit="10" stroke-linecap="round" stroke-linejoin="round"/>
<path d="M20.0705 111.851C21.607 111.851 22.8526 110.615 22.8526 109.09C22.8526 107.564 21.607 106.328 20.0705 106.328C18.534 106.328 17.2885 107.564 17.2885 109.09C17.2885 110.615 18.534 111.851 20.0705 111.851Z" stroke="#B78E56" stroke-width="0.5" stroke-miterlimit="10" stroke-linecap="round" stroke-linejoin="round"/>
<path d="M36.7628 5.91805C38.2993 5.91805 39.5449 4.68157 39.5449 3.15629C39.5449 1.63101 38.2993 0.394531 36.7628 0.394531C35.2263 0.394531 33.9808 1.63101 33.9808 3.15629C33.9808 4.68157 35.2263 5.91805 36.7628 5.91805Z" stroke="#B78E56" stroke-width="0.5" stroke-miterlimit="10" stroke-linecap="round" stroke-linejoin="round"/>
<path d="M36.7628 23.6722C38.2993 23.6722 39.5449 22.4357 39.5449 20.9104C39.5449 19.3852 38.2993 18.1487 36.7628 18.1487C35.2263 18.1487 33.9808 19.3852 33.9808 20.9104C33.9808 22.4357 35.2263 23.6722 36.7628 23.6722Z" stroke="#B78E56" stroke-width="0.5" stroke-miterlimit="10" stroke-linecap="round" stroke-linejoin="round"/>
<path d="M36.7628 41.2291C38.2993 41.2291 39.5449 39.9926 39.5449 38.4673C39.5449 36.942 38.2993 35.7056 36.7628 35.7056C35.2263 35.7056 33.9808 36.942 33.9808 38.4673C33.9808 39.9926 35.2263 41.2291 36.7628 41.2291Z" stroke="#B78E56" stroke-width="0.5" stroke-miterlimit="10" stroke-linecap="round" stroke-linejoin="round"/>
<path d="M36.7628 58.9833C38.2993 58.9833 39.5449 57.7468 39.5449 56.2215C39.5449 54.6963 38.2993 53.4598 36.7628 53.4598C35.2263 53.4598 33.9808 54.6963 33.9808 56.2215C33.9808 57.7468 35.2263 58.9833 36.7628 58.9833Z" stroke="#B78E56" stroke-width="0.5" stroke-miterlimit="10" stroke-linecap="round" stroke-linejoin="round"/>
<path d="M36.7628 76.5402C38.2993 76.5402 39.5449 75.3038 39.5449 73.7785C39.5449 72.2532 38.2993 71.0167 36.7628 71.0167C35.2263 71.0167 33.9808 72.2532 33.9808 73.7785C33.9808 75.3038 35.2263 76.5402 36.7628 76.5402Z" stroke="#B78E56" stroke-width="0.5" stroke-miterlimit="10" stroke-linecap="round" stroke-linejoin="round"/>
<path d="M36.7628 94.2944C38.2993 94.2944 39.5449 93.0579 39.5449 91.5326C39.5449 90.0074 38.2993 88.7709 36.7628 88.7709C35.2263 88.7709 33.9808 90.0074 33.9808 91.5326C33.9808 93.0579 35.2263 94.2944 36.7628 94.2944Z" stroke="#B78E56" stroke-width="0.5" stroke-miterlimit="10" stroke-linecap="round" stroke-linejoin="round"/>
<path d="M53.6538 5.91805C55.1903 5.91805 56.4359 4.68157 56.4359 3.15629C56.4359 1.63101 55.1903 0.394531 53.6538 0.394531C52.1174 0.394531 50.8718 1.63101 50.8718 3.15629C50.8718 4.68157 52.1174 5.91805 53.6538 5.91805Z" stroke="#B78E56" stroke-width="0.5" stroke-miterlimit="10" stroke-linecap="round" stroke-linejoin="round"/>
<path d="M53.6538 23.6722C55.1903 23.6722 56.4359 22.4357 56.4359 20.9104C56.4359 19.3852 55.1903 18.1487 53.6538 18.1487C52.1174 18.1487 50.8718 19.3852 50.8718 20.9104C50.8718 22.4357 52.1174 23.6722 53.6538 23.6722Z" stroke="#B78E56" stroke-width="0.5" stroke-miterlimit="10" stroke-linecap="round" stroke-linejoin="round"/>
<path d="M53.6538 41.2291C55.1903 41.2291 56.4359 39.9926 56.4359 38.4673C56.4359 36.942 55.1903 35.7056 53.6538 35.7056C52.1174 35.7056 50.8718 36.942 50.8718 38.4673C50.8718 39.9926 52.1174 41.2291 53.6538 41.2291Z" stroke="#B78E56" stroke-width="0.5" stroke-miterlimit="10" stroke-linecap="round" stroke-linejoin="round"/>
<path d="M53.6538 58.9833C55.1903 58.9833 56.4359 57.7468 56.4359 56.2215C56.4359 54.6963 55.1903 53.4598 53.6538 53.4598C52.1174 53.4598 50.8718 54.6963 50.8718 56.2215C50.8718 57.7468 52.1174 58.9833 53.6538 58.9833Z" stroke="#B78E56" stroke-width="0.5" stroke-miterlimit="10" stroke-linecap="round" stroke-linejoin="round"/>
<path d="M53.6538 76.5402C55.1903 76.5402 56.4359 75.3038 56.4359 73.7785C56.4359 72.2532 55.1903 71.0167 53.6538 71.0167C52.1174 71.0167 50.8718 72.2532 50.8718 73.7785C50.8718 75.3038 52.1174 76.5402 53.6538 76.5402Z" stroke="#B78E56" stroke-width="0.5" stroke-miterlimit="10" stroke-linecap="round" stroke-linejoin="round"/>
<path d="M70.3462 5.91805C71.8826 5.91805 73.1282 4.68157 73.1282 3.15629C73.1282 1.63101 71.8826 0.394531 70.3462 0.394531C68.8097 0.394531 67.5641 1.63101 67.5641 3.15629C67.5641 4.68157 68.8097 5.91805 70.3462 5.91805Z" stroke="#B78E56" stroke-width="0.5" stroke-miterlimit="10" stroke-linecap="round" stroke-linejoin="round"/>
<path d="M70.3462 23.6722C71.8826 23.6722 73.1282 22.4357 73.1282 20.9104C73.1282 19.3852 71.8826 18.1487 70.3462 18.1487C68.8097 18.1487 67.5641 19.3852 67.5641 20.9104C67.5641 22.4357 68.8097 23.6722 70.3462 23.6722Z" stroke="#B78E56" stroke-width="0.5" stroke-miterlimit="10" stroke-linecap="round" stroke-linejoin="round"/>
<path d="M70.3462 41.2291C71.8826 41.2291 73.1282 39.9926 73.1282 38.4673C73.1282 36.942 71.8826 35.7056 70.3462 35.7056C68.8097 35.7056 67.5641 36.942 67.5641 38.4673C67.5641 39.9926 68.8097 41.2291 70.3462 41.2291Z" stroke="#B78E56" stroke-width="0.5" stroke-miterlimit="10" stroke-linecap="round" stroke-linejoin="round"/>
<path d="M70.3462 58.9833C71.8826 58.9833 73.1282 57.7468 73.1282 56.2215C73.1282 54.6963 71.8826 53.4598 70.3462 53.4598C68.8097 53.4598 67.5641 54.6963 67.5641 56.2215C67.5641 57.7468 68.8097 58.9833 70.3462 58.9833Z" stroke="#B78E56" stroke-width="0.5" stroke-miterlimit="10" stroke-linecap="round" stroke-linejoin="round"/>
<path d="M87.2372 5.91805C88.7737 5.91805 90.0192 4.68157 90.0192 3.15629C90.0192 1.63101 88.7737 0.394531 87.2372 0.394531C85.7007 0.394531 84.4551 1.63101 84.4551 3.15629C84.4551 4.68157 85.7007 5.91805 87.2372 5.91805Z" stroke="#B78E56" stroke-width="0.5" stroke-miterlimit="10" stroke-linecap="round" stroke-linejoin="round"/>
<path d="M87.2372 23.6722C88.7737 23.6722 90.0192 22.4357 90.0192 20.9104C90.0192 19.3852 88.7737 18.1487 87.2372 18.1487C85.7007 18.1487 84.4551 19.3852 84.4551 20.9104C84.4551 22.4357 85.7007 23.6722 87.2372 23.6722Z" stroke="#B78E56" stroke-width="0.5" stroke-miterlimit="10" stroke-linecap="round" stroke-linejoin="round"/>
<path d="M87.2372 41.2291C88.7737 41.2291 90.0192 39.9926 90.0192 38.4673C90.0192 36.942 88.7737 35.7056 87.2372 35.7056C85.7007 35.7056 84.4551 36.942 84.4551 38.4673C84.4551 39.9926 85.7007 41.2291 87.2372 41.2291Z" stroke="#B78E56" stroke-width="0.5" stroke-miterlimit="10" stroke-linecap="round" stroke-linejoin="round"/>
<path d="M103.929 5.91805C105.466 5.91805 106.712 4.68157 106.712 3.15629C106.712 1.63101 105.466 0.394531 103.929 0.394531C102.393 0.394531 101.147 1.63101 101.147 3.15629C101.147 4.68157 102.393 5.91805 103.929 5.91805Z" stroke="#B78E56" stroke-width="0.5" stroke-miterlimit="10" stroke-linecap="round" stroke-linejoin="round"/>
<path d="M103.929 23.6722C105.466 23.6722 106.712 22.4357 106.712 20.9104C106.712 19.3852 105.466 18.1487 103.929 18.1487C102.393 18.1487 101.147 19.3852 101.147 20.9104C101.147 22.4357 102.393 23.6722 103.929 23.6722Z" stroke="#B78E56" stroke-width="0.5" stroke-miterlimit="10" stroke-linecap="round" stroke-linejoin="round"/>
<path d="M120.622 5.91805C122.158 5.91805 123.404 4.68157 123.404 3.15629C123.404 1.63101 122.158 0.394531 120.622 0.394531C119.085 0.394531 117.84 1.63101 117.84 3.15629C117.84 4.68157 119.085 5.91805 120.622 5.91805Z" stroke="#B78E56" stroke-width="0.5" stroke-miterlimit="10" stroke-linecap="round" stroke-linejoin="round"/>
</svg>
