<svg width="57" height="57" viewBox="0 0 57 57" fill="none" xmlns="http://www.w3.org/2000/svg">
<path d="M1.71001 36.133C1.71349 36.1569 1.72741 36.176 1.73263 36.1995L2.02095 38.4922C2.19055 39.7494 2.97768 40.8383 4.11792 41.3945L1.40343 55.875C1.35124 56.1529 1.42561 56.4395 1.60608 56.6569C1.78655 56.8744 2.05443 57 2.3371 57H4.23707C4.65238 57 5.01985 56.73 5.14379 56.3334L9.68562 41.8003H12.601L13.3281 44.1351L8.62018 55.6915C8.50059 55.9846 8.53494 56.3177 8.7115 56.5804C8.88806 56.8426 9.18378 57 9.49993 57H13.2999C13.6865 57 14.0339 56.7661 14.1801 56.4086L15.8709 52.2582L17.1433 56.3329C17.2672 56.73 17.6343 57 18.05 57H19.95C20.2327 57 20.5005 56.8744 20.681 56.6569C20.8619 56.4391 20.9358 56.1525 20.8837 55.8746L18.8363 44.9797L24.3892 31.3502H32.6109L38.1639 44.9797L36.1165 55.8746C36.0643 56.1525 36.1382 56.4391 36.3187 56.6569C36.4992 56.8744 36.7675 57 37.0501 57H38.9501C39.3659 57 39.7329 56.73 39.8568 56.3329L41.1293 52.2582L42.8201 56.4086C42.9662 56.7661 43.3136 57 43.6998 57H47.5002C47.8163 57 48.1121 56.8426 48.2886 56.5804C48.4652 56.3177 48.4995 55.9846 48.3799 55.6915L43.6716 44.1351L44.3991 41.8003H47.3145L51.8563 56.3334C51.9803 56.73 52.3473 57 52.7631 57H54.663C54.9457 57 55.2136 56.8744 55.394 56.6569C55.5745 56.4395 55.6489 56.1529 55.5967 55.875L52.8818 41.3941C54.0229 40.837 54.81 39.7464 54.9792 38.4878L55.2671 36.1995C55.2723 36.176 55.2862 36.1569 55.2897 36.133C55.2936 36.106 55.284 36.0812 55.2853 36.0543L56.9926 22.4818C57.0583 21.9613 56.6891 21.486 56.1686 21.4203C55.648 21.3546 55.1731 21.7238 55.1075 22.2444L54.984 23.2294C52.9631 23.0289 51.1457 24.4635 50.8718 26.4757L50.0747 32.52C49.7829 34.584 51.214 36.4957 53.2771 36.797L53.0949 38.246C52.9692 39.1915 52.1642 39.8981 51.2105 39.9003H50.767C50.313 37.6903 48.3691 36.103 46.1129 36.0999H41.3628C41.0519 36.1008 40.7414 36.1317 40.4361 36.193L38.4631 31.3502H46.55C47.5989 31.3489 48.4491 30.4992 48.45 29.4503V27.5503C48.4491 26.5014 47.5989 25.6512 46.55 25.6503H10.4501C9.40122 25.6512 8.55103 26.5014 8.55017 27.5503V29.4503C8.55103 30.4992 9.40122 31.3489 10.4501 31.3502H18.5371L16.564 36.193C16.2588 36.1317 15.9483 36.1008 15.6369 36.0999H10.8872C8.63105 36.103 6.68716 37.6903 6.23315 39.9003H5.78958C4.8372 39.8986 4.03268 39.1936 3.9057 38.25L3.72305 36.7966C5.78305 36.4965 7.21379 34.5892 6.92634 32.5274L6.12748 26.4683C5.85003 24.4596 4.03442 23.0289 2.01617 23.2289L1.89266 22.2439C1.82743 21.7234 1.35211 21.3546 0.831566 21.4203C0.31102 21.486 -0.0577536 21.9608 0.00747762 22.4814L1.7148 36.0547C1.7161 36.0817 1.70653 36.106 1.71001 36.133ZM52.3186 34.1869C52.0133 33.7842 51.8833 33.2759 51.9564 32.7762L52.7535 26.7319C52.8892 25.7521 53.7598 25.0445 54.7465 25.1124L53.5145 34.9088C53.0379 34.831 52.6095 34.5722 52.3186 34.1869ZM3.53823 55.1001H3.48126L5.9757 41.8003H7.6952L3.53823 55.1001ZM18.805 55.1001H18.7489L16.998 49.4924L17.5134 48.2273L18.805 55.1001ZM38.2513 55.1001H38.1952L39.4872 48.2273L40.0025 49.4924L38.2513 55.1001ZM53.4615 55.1001L49.3049 41.8003H51.0244L53.5184 55.1001H53.4615ZM41.3628 37.9999H46.1129C47.3206 38.0016 48.3965 38.7622 48.8005 39.9003H41.9464L41.1797 38.0182C41.2415 38.0143 41.3002 37.9999 41.3628 37.9999ZM39.0088 37.7264L39.011 37.7346L39.0149 37.7403L40.4291 41.2123L40.4348 41.2258L46.0868 55.1001H44.3391L40.0295 44.5226C40.0238 44.5087 40.019 44.4956 40.0129 44.4822L34.6631 31.3502H36.4109L39.0088 37.7264ZM10.4501 27.5503H46.55L46.5513 29.4503H10.4501V27.5503ZM22.337 31.3502L16.9789 44.5026L16.9741 44.5143L12.661 55.1001H10.9133L16.5658 41.2258L16.571 41.2123L17.9835 37.7459L17.987 37.7412L17.9887 37.7333L20.5888 31.3502H22.337ZM10.8872 37.9999H15.6369C15.7004 37.9999 15.7582 38.0143 15.8204 38.0177L15.0537 39.9003H8.19966C8.60365 38.7622 9.67954 38.0016 10.8872 37.9999ZM3.50822 25.482C3.90961 25.7817 4.17532 26.2287 4.24534 26.7245L5.04464 32.7836C5.18988 33.7977 4.49713 34.7423 3.48561 34.9079L2.25317 25.1124C2.7024 25.0819 3.14728 25.2133 3.50822 25.482Z" fill="#B78E56"/>
<path d="M20.9002 12.35H24.7002C24.7002 14.4487 26.4014 16.15 28.5001 16.15C30.5988 16.15 32.3 14.4487 32.3 12.35H36.1C36.5001 12.35 36.8571 12.0995 36.9932 11.7234C37.1293 11.3472 37.0154 10.9262 36.7079 10.6705L31.3498 6.20524V3.79994C31.349 2.75102 30.4988 1.90127 29.4499 1.89997V0.950203C29.4499 0.425308 29.0246 0 28.5001 0C27.9752 0 27.5499 0.425308 27.5499 0.950203V1.89997C26.501 1.90127 25.6512 2.75102 25.6499 3.79994V6.20524L20.2923 10.6701C19.9848 10.9262 19.8709 11.3472 20.007 11.7234C20.1431 12.0995 20.5001 12.35 20.9002 12.35ZM28.5001 14.25C27.4512 14.2491 26.601 13.3989 26.6001 12.35H30.4001C30.3992 13.3989 29.549 14.2491 28.5001 14.25ZM27.5499 3.79994H29.4499V5.69991H27.5499V3.79994ZM26.9437 7.59988H30.0565L33.4764 10.4501H23.5242L26.9437 7.59988Z" fill="#B78E56"/>
</svg>
