<svg width="59" height="59" viewBox="0 0 59 59" fill="none" xmlns="http://www.w3.org/2000/svg">
<path d="M56.0484 34.4176H53.0983V24.5848C53.0952 21.8706 50.8959 19.6713 48.1817 19.6681H32.4491C29.7349 19.6713 27.5356 21.8706 27.5324 24.5848V34.4176H24.5824C22.9543 34.4194 21.6345 35.7392 21.6327 37.3677V47.2006C21.6404 49.7883 23.6551 51.9255 26.2379 52.0857L24.8241 57.0334H15.6335C15.1632 54.7464 13.1516 53.1034 10.8164 53.1003H8.84979V7.82909C8.85114 4.75342 11.2287 2.2017 14.2967 1.98384C17.3647 1.76598 20.0794 3.95581 20.5155 7.00042L20.5326 7.1197C19.2638 7.64229 18.5269 8.97464 18.7592 10.3268L19.0274 11.9144L16.3983 16.4295C16.045 17.0367 16.0422 17.7862 16.3906 18.3961C16.7395 19.006 17.3872 19.3836 18.0898 19.3868C18.2024 19.3868 18.3149 19.3773 18.4256 19.3584L27.8592 17.7641C28.6114 17.6367 29.2222 17.0858 29.4265 16.3507C29.6305 15.6157 29.391 14.8289 28.8117 14.3324L24.8448 10.9318L24.5765 9.34419C24.3861 8.23735 23.5822 7.33531 22.5046 7.01887L22.4623 6.72224C21.8812 2.65497 18.255 -0.27126 14.1572 0.0199671C10.0593 0.311194 6.88322 3.72085 6.88322 7.82909V53.1003H4.91665V52.1172C4.91665 51.5739 4.47644 51.1337 3.93314 51.1337C3.3903 51.1337 2.95008 51.5739 2.95008 52.1172V53.5171C1.16086 54.299 0.00360095 56.0643 0 58.0169C0 58.5598 0.440217 59 0.983511 59H58.015C58.5578 59 58.998 58.5598 58.998 58.0169C58.998 57.4736 58.5578 57.0334 58.015 57.0334H55.8067L54.3929 52.0857C56.9756 51.9255 58.9904 49.7883 58.998 47.2006V37.3677C58.9962 35.7392 57.6765 34.4194 56.0484 34.4176ZM27.5315 15.825L18.0979 17.4198L20.6744 12.9951L23.6448 12.4932L27.5387 15.8232L27.5315 15.825ZM22.8017 10.641L20.8626 10.9687L20.6983 9.99911C20.6087 9.46392 20.9688 8.95709 21.504 8.86571C21.5585 8.85671 21.6134 8.85221 21.6687 8.85221C22.1481 8.85311 22.5573 9.1988 22.6383 9.67143L22.8017 10.641ZM32.4491 21.6347H48.1817C49.8102 21.6365 51.1299 22.9562 51.1317 24.5848V34.599C49.9565 35.0127 49.1688 36.1213 49.1652 37.3677V39.3595C48.319 38.7091 47.2823 38.3544 46.2151 38.3508H42.6893L44.944 36.0961C45.3162 35.7104 45.3113 35.0969 44.9318 34.7179C44.5524 34.3384 43.9393 34.333 43.5535 34.7057L41.2989 36.9604V32.4511C41.2989 31.9078 40.8582 31.4676 40.3154 31.4676C39.7725 31.4676 39.3319 31.9078 39.3319 32.4511V36.9604L37.0772 34.7057C36.6915 34.333 36.0784 34.3384 35.699 34.7179C35.3195 35.0969 35.3146 35.7104 35.6868 36.0961L37.9415 38.3508H34.4157C33.3484 38.3544 32.3118 38.7091 31.4656 39.3595V37.3677C31.462 36.1213 30.6743 35.0127 29.499 34.599V24.5848C29.5008 22.9562 30.8206 21.6365 32.4491 21.6347ZM46.2151 40.3173C47.8436 40.3191 49.1634 41.6389 49.1652 43.2674V44.2505H31.4656V43.2674C31.4674 41.6389 32.7871 40.3191 34.4157 40.3173H46.2151ZM47.6114 52.1172L50.421 57.0334H30.2102L33.0194 52.1172H47.6114ZM49.1652 50.1502H31.4656V46.2171H49.1652V50.1502ZM23.5993 47.2006V37.3677C23.5998 36.8249 24.04 36.3851 24.5824 36.3842H28.516C29.0583 36.3851 29.4986 36.8249 29.499 37.3677V50.1502H26.5494C24.9209 50.1484 23.6011 48.8291 23.5993 47.2006ZM2.13537 57.0334C2.55308 55.8559 3.66667 55.0682 4.91665 55.0669H10.8164C12.0659 55.0682 13.1799 55.8559 13.5977 57.0334H2.13537ZM26.8694 57.0334L28.2742 52.1172H30.7548L27.9457 57.0334H26.8694ZM52.6851 57.0334L49.8759 52.1172H52.3565L53.7613 57.0334H52.6851ZM57.0315 47.2006C57.0297 48.8291 55.7099 50.1484 54.0814 50.1502H51.1317V37.3677C51.1322 36.8249 51.5724 36.3851 52.1148 36.3842H56.0484C56.5908 36.3851 57.0306 36.8249 57.0315 37.3677V47.2006Z" fill="#B78E56"/>
</svg>
