<svg width="54" height="54" viewBox="0 0 54 54" fill="none" xmlns="http://www.w3.org/2000/svg">
<path d="M53.0998 1.79997C53.5971 1.79997 54 1.39705 54 0.900194C54 0.402925 53.5971 1.53358e-06 53.0998 1.53358e-06H29.839C28.9475 -0.000822441 28.0872 0.330415 27.4264 0.928621L1.48439 24.3596C0.540115 25.2132 0.000823975 26.4265 0 27.6996V30.5999C0 31.0972 0.402924 31.5001 0.900192 31.5001C1.39705 31.5001 1.79997 31.0972 1.79997 30.5999V27.6996C1.8008 26.9357 2.12421 26.2082 2.69028 25.6957L6.30011 22.4352V43.2002H0.900192C0.402924 43.2002 0 43.6031 0 44.0999C0 44.5972 0.402924 45.0001 0.900192 45.0001H1.79997V52.2C1.80121 53.1937 2.60623 53.9988 3.59995 54H52.2C53.1937 53.9988 53.9988 53.1937 54 52.2V18.0001C53.9988 17.0064 53.1937 16.201 52.2 16.2002H46.8001V1.79997H53.0998ZM29.839 1.79997H35.9999V16.2002H30.5999C30.1031 16.2002 29.7002 16.6031 29.7002 17.0999C29.7002 17.5972 30.1031 18.0001 30.5999 18.0001H31.5001V24.2998C31.4997 24.7967 31.0968 25.1996 30.5999 25.2H27.9002V2.92594L28.6331 2.26387C28.9635 1.96477 29.3932 1.79956 29.839 1.79997ZM22.4999 25.2H20.6999C20.203 25.2 19.8001 25.603 19.8001 26.0998C19.8001 26.5971 20.203 27 20.6999 27H21.6001V33.3001C21.5997 33.797 21.1967 34.1995 20.6999 34.1999H18.0001V11.8677L26.0998 4.55205V25.2H22.4999ZM8.10008 20.8095L16.2002 13.4938V34.1999H10.7998C10.303 34.1999 9.90005 34.6028 9.90005 35.1001C9.90005 35.5969 10.303 35.9999 10.7998 35.9999H11.7V42.3C11.6996 42.7968 11.2967 43.1998 10.7998 43.2002H8.10008V20.8095ZM35.9999 52.2C35.0066 52.1988 34.2011 51.3938 34.1999 50.4001V45.0001H43.2002V50.4001C43.1989 51.3938 42.3935 52.1988 41.4002 52.2H35.9999ZM36.877 39.2871C34.9633 38.6745 33.2531 37.5506 31.9319 36.0361C30.7281 34.4269 29.9853 32.5202 29.7838 30.5204C31.6983 31.1322 33.4085 32.2565 34.7297 33.771C35.9331 35.3806 36.6755 37.2873 36.877 39.2871ZM37.242 34.3486C37.2053 33.8476 37.2107 33.3442 37.2568 32.844C37.5531 30.6222 38.4598 28.526 39.8758 26.7887C40.9359 28.7625 41.4303 30.9905 41.3042 33.2276C41.2737 33.549 41.2214 33.8678 41.1476 34.1822C40.5976 35.2014 40.1869 36.2895 39.9273 37.4179C39.9224 37.4295 39.9232 37.4418 39.9187 37.4538C39.7543 38.1603 39.6406 38.8776 39.5796 39.5998H38.7206C38.5756 37.7698 38.0734 35.9854 37.242 34.3486ZM43.571 33.7714C44.8947 32.259 46.6052 31.1359 48.5193 30.5225C48.3183 32.5223 47.5746 34.429 46.3683 36.0361C45.0442 37.5485 43.3336 38.6716 41.42 39.2855C41.621 37.2857 42.3647 35.379 43.571 33.7714ZM45.0001 41.4002L45.001 43.2002H32.3999V41.4002H45.0001ZM52.2 52.2H44.4992C44.8234 51.6554 44.9964 51.0337 45.0001 50.4001V45.0001C45.9934 44.9989 46.7989 44.1935 46.8001 43.2002V41.4002C46.7989 40.4065 45.9934 39.601 45.0001 39.5998H44.9651C46.0285 38.9518 46.9756 38.1298 47.7679 37.1691C49.4554 34.8875 50.377 32.1305 50.4001 29.2927C50.3955 29.0266 50.2736 28.7757 50.0668 28.608C49.8595 28.4407 49.5893 28.3732 49.3277 28.4242C47.0189 28.9487 44.8815 30.052 43.1169 31.6303C42.9052 29.1749 42.0977 26.808 40.7645 24.7353C40.6141 24.5157 40.3739 24.374 40.109 24.3485C39.8441 24.3241 39.5821 24.4173 39.3918 24.6031C37.4282 26.6461 36.0959 29.2132 35.5553 31.9949C33.7335 30.2189 31.4544 28.9829 28.9722 28.4247C28.711 28.3736 28.4403 28.4407 28.2335 28.6084C28.0267 28.7761 27.9047 29.0266 27.9002 29.2927C27.9229 32.1305 28.8445 34.8875 30.5324 37.1691C31.3242 38.1298 32.2714 38.9518 33.3347 39.5998H32.3999C31.4062 39.601 30.6012 40.4065 30.5999 41.4002V43.2002C30.6012 44.1935 31.4062 44.9989 32.3999 45.0001V50.4001C32.4036 51.0337 32.5767 51.6554 32.9005 52.2H3.59995V45.0001H10.7998C12.2904 44.9985 13.4984 43.7905 13.5 42.3V35.9999H20.6999C22.1905 35.9982 23.3984 34.7907 23.4001 33.3001V27H30.5999C32.0905 26.9984 33.2985 25.7904 33.3001 24.2998V18.0001H36.9013L45.8958 17.9993L45.8999 18.0001L45.9044 17.9989H52.2V52.2ZM45.0001 16.2002H37.7998V1.79997H45.0001V16.2002Z" fill="#B78E56"/>
<path d="M40.5 49.4998H36.9001C36.4028 49.4998 35.9999 49.9027 35.9999 50.3999C35.9999 50.8968 36.4028 51.2997 36.9001 51.2997H40.5C40.9969 51.2997 41.4002 50.8968 41.4002 50.3999C41.4002 49.9027 40.9969 49.4998 40.5 49.4998Z" fill="#B78E56"/>
</svg>
