<svg width="48" height="48" viewBox="0 0 48 48" fill="none" xmlns="http://www.w3.org/2000/svg">
<path d="M42.3995 18.3994C42.1318 18.4016 41.8645 18.4228 41.5997 18.4635V7.19987C41.5953 3.22513 38.3742 0.00439441 34.3998 0H13.6004C9.626 0.00439441 6.40489 3.22513 6.4005 7.19987V18.4635C3.66022 18.065 1.04079 19.7313 0.239909 22.3822C-0.560971 25.0331 0.698026 27.8708 3.20064 29.0562V41.5989C3.20211 42.9235 4.2758 43.9972 5.60072 43.9986V46.3987C5.60182 47.2816 6.31737 47.9975 7.20065 47.9986H8.80058C9.68385 47.9975 10.3994 47.2816 10.4005 46.3987V43.9986H37.5997V46.3987C37.6008 47.2816 38.3167 47.9975 39.1996 47.9986H40.7995C41.6828 47.9975 42.3984 47.2816 42.3995 46.3987V43.9986C43.7244 43.9972 44.7981 42.9235 44.7996 41.5989V29.0562C47.1656 27.9345 48.4381 25.3224 47.8628 22.7678C47.2875 20.2132 45.0182 18.3986 42.3995 18.3994ZM8.0008 7.19987C8.00446 4.10877 10.5093 1.60359 13.6004 1.59993H34.3998C37.4909 1.60359 39.9961 4.10877 39.9998 7.19987V18.9476C38.0483 19.8737 36.8032 21.8395 36.7999 23.9993V30.0442C36.3158 29.756 35.7632 29.6022 35.2 29.5993H33.0947L34.9085 19.4401C35.1366 18.1361 34.2676 16.8928 32.9643 16.6596L21.9369 14.6909C20.6333 14.4631 19.3904 15.3321 19.1564 16.635L17.188 27.6624C17.0698 28.3531 17.2602 29.0606 17.7084 29.5993H12.8006C12.237 29.6022 11.6848 29.756 11.2007 30.0442V23.9993C11.197 21.8395 9.95191 19.8737 8.0008 18.9476V7.19987ZM11.2007 32.7991C11.2018 31.9158 11.9173 31.2003 12.8006 31.1992H35.2C36.0829 31.2003 36.7984 31.9158 36.7999 32.7991V37.5989H11.2007V32.7991ZM19.4098 28.8672C18.9758 28.7885 18.6869 28.3739 18.7634 27.9396L20.7321 16.9126C20.8116 16.4794 21.2254 16.1908 21.6597 16.2666L32.6867 18.2353C33.1203 18.3141 33.4093 18.7286 33.3327 19.1625L31.4699 29.5993H23.5105L19.4098 28.8672ZM4.80057 41.5989V28.519C4.80094 28.1784 4.58488 27.8752 4.26335 27.7639C2.34813 27.0827 1.24879 25.0734 1.70837 23.0933C2.16759 21.1137 4.03924 19.7935 6.05847 20.0249C8.0777 20.2567 9.60183 21.9669 9.60073 23.9993V42.3987H5.60072C5.15908 42.3983 4.80094 42.0406 4.80057 41.5989ZM8.80204 46.3987H7.20065V43.9986H8.80058L8.80204 46.3987ZM11.2007 39.1988H36.7999V42.3987H11.2007V39.1988ZM40.8014 46.3987H39.1996V43.9986H40.7995L40.8014 46.3987ZM43.7372 27.7642C43.4153 27.8755 43.1996 28.1788 43.1996 28.519V41.5989C43.1993 42.0406 42.8415 42.3983 42.3995 42.3987H38.3998V23.9993C38.3973 21.9651 39.9218 20.2531 41.9428 20.0205C43.9635 19.7884 45.837 21.1096 46.2962 23.0915C46.7554 25.073 45.6543 27.0838 43.7372 27.7642Z" fill="#B78E56"/>
<path d="M13.6004 12H15.2003C15.642 12.0004 16.0001 12.3581 16.0005 12.7998V14.3997C16.0005 14.8417 16.3586 15.1999 16.8002 15.1999C17.2422 15.1999 17.6004 14.8417 17.6004 14.3997V12.7998C17.6008 12.3581 17.9585 12.0004 18.4002 12H20.0005C20.4421 12 20.8003 11.6418 20.8003 11.1998C20.8003 10.7582 20.4421 10.4001 20.0005 10.4001H18.4002C17.9585 10.3997 17.6008 10.0415 17.6004 9.59991V7.99998C17.6004 7.55834 17.2422 7.2002 16.8002 7.2002C16.3586 7.2002 16.0005 7.55834 16.0005 7.99998V9.59991C16.0001 10.0415 15.642 10.3997 15.2003 10.4001H13.6004C13.1587 10.4001 12.8006 10.7582 12.8006 11.1998C12.8006 11.6418 13.1587 12 13.6004 12Z" fill="#B78E56"/>
<path d="M28.0001 12H29.6C30.0417 12.0004 30.3998 12.3581 30.3998 12.7998V14.3997C30.3998 14.8417 30.758 15.1999 31.2 15.1999C31.6416 15.1999 32.0001 14.8417 32.0001 14.3997V12.7998C32.0001 12.3581 32.3583 12.0004 32.7999 12H34.3998C34.8418 12 35.2 11.6418 35.2 11.1998C35.2 10.7582 34.8418 10.4001 34.3998 10.4001H32.7999C32.3583 10.3997 32.0001 10.0415 32.0001 9.59991V7.99998C32.0001 7.55834 31.6416 7.2002 31.2 7.2002C30.758 7.2002 30.3998 7.55834 30.3998 7.99998V9.59991C30.3998 10.0415 30.0417 10.3997 29.6 10.4001H28.0001C27.5581 10.4001 27.2 10.7582 27.2 11.1998C27.2 11.6418 27.5581 12 28.0001 12Z" fill="#B78E56"/>
<path d="M7.20074 23.9999C7.20074 23.5579 6.84259 23.1997 6.40057 23.1997H4.8006C4.35895 23.1997 4.00079 23.5579 4.00079 23.9999C4.00079 24.4415 4.35895 24.7997 4.8006 24.7997H6.40057C6.84259 24.7997 7.20074 24.4415 7.20074 23.9999Z" fill="#B78E56"/>
<path d="M43.1997 23.1997H41.5997C41.1577 23.1997 40.7996 23.5579 40.7996 23.9999C40.7996 24.4415 41.1577 24.7997 41.5997 24.7997H43.1997C43.6414 24.7997 43.9999 24.4415 43.9999 23.9999C43.9999 23.5579 43.6414 23.1997 43.1997 23.1997Z" fill="#B78E56"/>
</svg>
