<svg width="53" height="53" viewBox="0 0 53 53" fill="none" xmlns="http://www.w3.org/2000/svg">
<path d="M50.3498 35.3332H41.792L49.1994 31.0559C49.81 30.7065 50.2564 30.1287 50.44 29.4494C50.624 28.7701 50.5298 28.0459 50.1784 27.4365L43.9933 16.7267C43.6411 16.1177 43.0609 15.6737 42.3812 15.493C41.7014 15.3086 40.976 15.4056 40.3687 15.7619L32.9596 20.0404L37.2357 12.635C37.5907 12.026 37.6882 11.3006 37.507 10.6192C37.3259 9.9379 36.8803 9.35684 36.2697 9.00505L25.5615 2.81999C24.9521 2.46982 24.2287 2.37641 23.5506 2.55999C22.8725 2.74357 22.2951 3.18877 21.9453 3.79813L17.6668 11.2096V2.65016C17.6652 1.18719 16.4796 0.00161743 15.0166 0H2.65016C1.18719 0.00161743 0.00161743 1.18719 0 2.65016V50.3498C0.00161743 51.8128 1.18719 52.9984 2.65016 53H50.3498C51.8128 52.9984 52.9984 51.8128 53 50.3498V37.9834C52.9984 36.5204 51.8128 35.3348 50.3498 35.3332ZM2.65016 35.3332C2.34851 35.3364 2.04969 35.3914 1.76664 35.4962V26.5H8.83846L3.73869 35.3332H2.65016ZM38.2587 35.3332H26.1793L22.1325 28.3326L31.3111 23.0326L38.3744 35.2669L38.2587 35.3332ZM29.8986 21.8078L19.4411 27.8469L12.436 23.8021L17.7339 14.626L29.9674 21.6889L29.8986 21.8078ZM15.9002 14.269L10.4721 23.6711C10.4692 23.6756 10.4648 23.6776 10.462 23.6824L10.4571 23.6966L9.85865 24.7334H1.76664V14.1335H15.9002V14.269ZM11.5529 25.3322L17.6745 28.8671L6.4766 35.3332H5.77868L11.5529 25.3322ZM19.8714 29.6386L19.8827 29.6322L20.6028 29.2161L24.139 35.3332H10.0099L19.8714 29.6386ZM15.9002 37.0998H26.5V51.2334H15.9002V37.0998ZM28.2666 37.0998H38.8665V51.2334H28.2666V37.0998ZM41.2554 17.2899C41.4568 17.1711 41.6982 17.1383 41.9242 17.199C42.1523 17.2604 42.3468 17.4092 42.4657 17.6134L48.6471 28.3176C48.7648 28.521 48.7963 28.7628 48.7344 28.9896C48.6726 29.2161 48.5229 29.409 48.3183 29.5242L39.9041 34.3826L32.8411 22.1487L41.2554 17.2899ZM23.477 4.67883C23.5927 4.47584 23.7847 4.32703 24.0108 4.26557C24.2364 4.20411 24.4774 4.23484 24.6804 4.3513L35.3829 10.5327C35.5888 10.6512 35.7392 10.8465 35.801 11.0758C35.8617 11.3034 35.8281 11.5456 35.7076 11.7482L30.8513 20.1589L18.6174 13.0959L23.477 4.67883ZM2.65016 1.76664H15.0166C15.5043 1.76745 15.8994 2.16251 15.9002 2.65016V12.3665H1.76664V2.65016C1.76745 2.16251 2.16251 1.76745 2.65016 1.76664ZM1.76664 50.3498V37.9834C1.76745 37.4957 2.16251 37.1006 2.65016 37.0998H14.1335V51.2334H2.65016C2.16251 51.2326 1.76745 50.8375 1.76664 50.3498ZM51.2334 50.3498C51.2326 50.8375 50.8375 51.2326 50.3498 51.2334H40.6335V37.0998H50.3498C50.8375 37.1006 51.2326 37.4957 51.2334 37.9834V50.3498Z" fill="#B78E56"/>
<path d="M8.83319 40.6334C6.88176 40.6334 5.29991 42.2153 5.29991 44.1667C5.29991 46.1181 6.88176 47.7 8.83319 47.7C10.7846 47.7 12.3665 46.1181 12.3665 44.1667C12.3644 42.2161 10.7838 40.6354 8.83319 40.6334ZM8.83319 45.9333C7.85748 45.9333 7.06655 45.1424 7.06655 44.1667C7.06655 43.191 7.85748 42.4001 8.83319 42.4001C9.80891 42.4001 10.5998 43.191 10.5998 44.1667C10.599 45.142 9.8085 45.9321 8.83319 45.9333Z" fill="#B78E56"/>
</svg>
