<svg width="52" height="49" viewBox="0 0 52 49" fill="none" xmlns="http://www.w3.org/2000/svg">
<path d="M46.2284 26.6124C46.4022 26.6124 46.5688 26.5433 46.6917 26.4204C46.8146 26.2976 46.8836 26.1309 46.8836 25.9571V23.341C46.8807 20.834 45.8835 18.4304 44.1108 16.6577C42.338 14.885 39.9345 13.8878 37.4275 13.8849C37.2537 13.8849 37.0871 13.9539 36.9642 14.0768C36.8413 14.1996 36.7723 14.3663 36.7723 14.5401C36.7723 14.7139 36.8413 14.8805 36.9642 15.0034C37.0871 15.1263 37.2537 15.1953 37.4275 15.1953C39.5872 15.1978 41.6577 16.0569 43.1848 17.5841C44.7119 19.1112 45.5708 21.1818 45.5732 23.3415V25.9577C45.5733 26.1313 45.6424 26.2979 45.7653 26.4206C45.8881 26.5434 46.0547 26.6124 46.2284 26.6124Z" fill="white"/>
<path d="M35.0682 15.1948C35.242 15.1948 35.4086 15.1258 35.5315 15.0029C35.6544 14.88 35.7234 14.7134 35.7234 14.5396C35.7234 14.3658 35.6544 14.1992 35.5315 14.0763C35.4086 13.9534 35.242 13.8844 35.0682 13.8844H34.6751C34.5013 13.8844 34.3347 13.9534 34.2118 14.0763C34.0889 14.1992 34.0199 14.3658 34.0199 14.5396C34.0199 14.7134 34.0889 14.88 34.2118 15.0029C34.3347 15.1258 34.5013 15.1948 34.6751 15.1948H35.0682Z" fill="white"/>
<path d="M18.076 18.7062C17.8656 18.7062 17.66 18.7686 17.4851 18.8854C17.3102 19.0023 17.1739 19.1684 17.0934 19.3628C17.0129 19.5571 16.9918 19.7709 17.0329 19.9773C17.0739 20.1836 17.1752 20.3731 17.3239 20.5218C17.4727 20.6706 17.6622 20.7718 17.8685 20.8129C18.0748 20.8539 18.2886 20.8329 18.483 20.7524C18.6773 20.6719 18.8434 20.5355 18.9603 20.3606C19.0772 20.1857 19.1395 19.9801 19.1395 19.7698C19.1392 19.4878 19.0271 19.2174 18.8277 19.018C18.6283 18.8186 18.358 18.7065 18.076 18.7062Z" fill="white"/>
<path d="M25.8076 18.7062C25.5972 18.7062 25.3916 18.7686 25.2167 18.8854C25.0418 19.0023 24.9055 19.1684 24.825 19.3628C24.7445 19.5571 24.7234 19.7709 24.7645 19.9773C24.8055 20.1836 24.9068 20.3731 25.0555 20.5218C25.2043 20.6706 25.3938 20.7718 25.6001 20.8129C25.8064 20.8539 26.0202 20.8329 26.2146 20.7524C26.4089 20.6719 26.575 20.5355 26.6919 20.3606C26.8087 20.1857 26.8711 19.9801 26.8711 19.7698C26.8708 19.4878 26.7587 19.2174 26.5593 19.018C26.3599 18.8186 26.0896 18.7065 25.8076 18.7062Z" fill="white"/>
<path d="M33.5391 18.7062C33.3288 18.7062 33.1232 18.7686 32.9483 18.8854C32.7734 19.0023 32.637 19.1684 32.5565 19.3628C32.476 19.5571 32.455 19.7709 32.496 19.9773C32.5371 20.1836 32.6384 20.3731 32.7871 20.5218C32.9358 20.6706 33.1253 20.7718 33.3317 20.8129C33.538 20.8539 33.7518 20.8329 33.9461 20.7524C34.1405 20.6719 34.3066 20.5355 34.4235 20.3606C34.5403 20.1857 34.6027 19.9801 34.6027 19.7698C34.6024 19.4878 34.4903 19.2174 34.2909 19.018C34.0915 18.8186 33.8211 18.7065 33.5391 18.7062Z" fill="white"/>
<path d="M18.076 24.8936C17.8656 24.8936 17.66 24.956 17.4851 25.0728C17.3102 25.1897 17.1739 25.3558 17.0934 25.5501C17.0129 25.7445 16.9918 25.9583 17.0329 26.1646C17.0739 26.3709 17.1752 26.5604 17.3239 26.7092C17.4727 26.8579 17.6622 26.9592 17.8685 27.0003C18.0748 27.0413 18.2886 27.0202 18.483 26.9397C18.6773 26.8592 18.8434 26.7229 18.9603 26.548C19.0772 26.3731 19.1395 26.1675 19.1395 25.9571C19.1392 25.6752 19.0271 25.4048 18.8277 25.2054C18.6283 25.006 18.358 24.8939 18.076 24.8936Z" fill="white"/>
<path d="M25.8076 24.8936C25.5972 24.8936 25.3916 24.956 25.2167 25.0728C25.0418 25.1897 24.9055 25.3558 24.825 25.5501C24.7445 25.7445 24.7234 25.9583 24.7645 26.1646C24.8055 26.3709 24.9068 26.5604 25.0555 26.7092C25.2043 26.8579 25.3938 26.9592 25.6001 27.0003C25.8064 27.0413 26.0202 27.0202 26.2146 26.9397C26.4089 26.8592 26.575 26.7229 26.6919 26.548C26.8087 26.3731 26.8711 26.1675 26.8711 25.9571C26.8708 25.6752 26.7587 25.4048 26.5593 25.2054C26.3599 25.006 26.0896 24.8939 25.8076 24.8936Z" fill="white"/>
<path d="M33.5391 24.8936C33.3288 24.8936 33.1232 24.956 32.9483 25.0728C32.7734 25.1897 32.637 25.3558 32.5565 25.5501C32.476 25.7445 32.455 25.9583 32.496 26.1646C32.5371 26.3709 32.6384 26.5604 32.7871 26.7092C32.9358 26.8579 33.1253 26.9592 33.3317 27.0003C33.538 27.0413 33.7518 27.0202 33.9461 26.9397C34.1405 26.8592 34.3066 26.7229 34.4235 26.548C34.5403 26.3731 34.6027 26.1675 34.6027 25.9571C34.6024 25.6752 34.4903 25.4048 34.2909 25.2054C34.0915 25.006 33.8211 24.8939 33.5391 24.8936Z" fill="white"/>
<path d="M46.2284 27.2403C44.8176 27.2428 43.4647 27.8018 42.4636 28.7959C41.4625 29.79 40.8941 31.139 40.8818 32.5497C35.9406 31.4007 30.8804 30.8429 25.8076 30.8881C20.7355 30.8431 15.676 31.4009 10.7355 32.5497C10.7235 31.2525 10.2412 30.0038 9.37793 29.0355C8.51469 28.0671 7.3293 27.4451 6.042 27.2849V23.341C6.04435 21.1813 6.9033 19.1107 8.43038 17.5836C9.95747 16.0564 12.028 15.1973 14.1877 15.1948H32.2287C32.4025 15.1948 32.5692 15.1258 32.6921 15.0029C32.8149 14.88 32.884 14.7134 32.884 14.5396C32.884 14.3658 32.8149 14.1992 32.6921 14.0763C32.5692 13.9534 32.4025 13.8844 32.2287 13.8844H14.1877C11.6806 13.8873 9.27697 14.8846 7.50422 16.6574C5.73147 18.4303 4.73433 20.8339 4.73156 23.341V27.2849C3.37249 27.4423 2.12546 28.1147 1.24717 29.1637C0.368866 30.2127 -0.0738713 31.5585 0.0100834 32.9241C0.094038 34.2897 0.698296 35.5711 1.69848 36.5046C2.69866 37.4381 4.01866 37.9527 5.38678 37.9424C5.56055 37.9424 5.72721 37.8734 5.85009 37.7505C5.97296 37.6276 6.042 37.461 6.042 37.2872C6.042 37.1134 5.97296 36.9468 5.85009 36.8239C5.72721 36.701 5.56055 36.632 5.38678 36.632C4.58769 36.6319 3.80659 36.3948 3.14222 35.9508C2.47786 35.5068 1.96008 34.8757 1.65436 34.1375C1.34864 33.3992 1.2687 32.5868 1.42466 31.8031C1.58061 31.0194 1.96546 30.2995 2.53053 29.7345C3.0956 29.1695 3.81553 28.7848 4.59926 28.6289C5.383 28.4731 6.19535 28.5531 6.93359 28.8589C7.67184 29.1647 8.30282 29.6826 8.74676 30.347C9.1907 31.0114 9.42764 31.7926 9.42764 32.5917V39.6895C9.42764 39.8632 9.4966 40.0298 9.61937 40.1526C9.74213 40.2755 9.90866 40.3446 10.0823 40.3447H41.5329C41.7066 40.3447 41.8733 40.2757 41.9962 40.1528C42.119 40.0299 42.1881 39.8633 42.1881 39.6895C42.1881 39.5157 42.119 39.3491 41.9962 39.2262C41.8733 39.1033 41.7066 39.0343 41.5329 39.0343H10.7376V35.0123H15.6517C15.8255 35.0123 15.9921 34.9433 16.115 34.8204C16.2379 34.6975 16.3069 34.5309 16.3069 34.3571C16.3069 34.1833 16.2379 34.0166 16.115 33.8938C15.9921 33.7709 15.8255 33.7019 15.6517 33.7019H11.5317C16.2184 32.6641 21.0075 32.1597 25.8076 32.1985C30.8816 32.1479 35.9427 32.7193 40.8776 33.9V37.1536C40.8776 37.3273 40.9467 37.494 41.0695 37.6169C41.1924 37.7397 41.3591 37.8088 41.5329 37.8088C41.7066 37.8088 41.8733 37.7397 41.9962 37.6169C42.119 37.494 42.1881 37.3273 42.1881 37.1536V32.5932C42.1881 31.7941 42.425 31.013 42.869 30.3485C43.313 29.6841 43.944 29.1662 44.6822 28.8604C45.4205 28.5546 46.2329 28.4746 47.0167 28.6305C47.8004 28.7864 48.5203 29.1712 49.0854 29.7363C49.6504 30.3013 50.0352 31.0212 50.1911 31.805C50.347 32.5887 50.267 33.4011 49.9612 34.1394C49.6554 34.8777 49.1375 35.5087 48.4731 35.9527C47.8087 36.3966 47.0275 36.6336 46.2284 36.6336C46.0546 36.6336 45.888 36.7026 45.7651 36.8255C45.6422 36.9484 45.5732 37.115 45.5732 37.2888V45.7196H6.042V39.6869C6.042 39.5131 5.97296 39.3465 5.85009 39.2236C5.72721 39.1007 5.56055 39.0317 5.38678 39.0317C5.213 39.0317 5.04634 39.1007 4.92347 39.2236C4.80059 39.3465 4.73156 39.5131 4.73156 39.6869V46.3727C4.73156 46.5465 4.80059 46.7132 4.92347 46.8361C5.04634 46.9589 5.213 47.028 5.38678 47.028H7.36344V47.7487C7.36344 47.9225 7.43247 48.0891 7.55535 48.212C7.67823 48.3349 7.84489 48.4039 8.01866 48.4039C8.19244 48.4039 8.35909 48.3349 8.48197 48.212C8.60485 48.0891 8.67388 47.9225 8.67388 47.7487V47.028H42.9418V47.7487C42.9418 47.9225 43.0109 48.0891 43.1337 48.212C43.2566 48.3349 43.4233 48.4039 43.5971 48.4039C43.7708 48.4039 43.9375 48.3349 44.0604 48.212C44.1832 48.0891 44.2523 47.9225 44.2523 47.7487V47.028H46.2289C46.4027 47.028 46.5694 46.9589 46.6923 46.8361C46.8151 46.7132 46.8842 46.5465 46.8842 46.3727V37.9026C48.2353 37.7346 49.4717 37.0579 50.3413 36.0103C51.211 34.9627 51.6487 33.6229 51.5652 32.2639C51.4817 30.9049 50.8832 29.6289 49.8918 28.6956C48.9004 27.7624 47.5905 27.2421 46.2289 27.2409L46.2284 27.2403Z" fill="white"/>
<path d="M0.691138 5.96193H2.6568V6.68267C2.6568 6.85644 2.72583 7.0231 2.8487 7.14598C2.97158 7.26886 3.13824 7.33789 3.31201 7.33789C3.48579 7.33789 3.65245 7.26886 3.77532 7.14598C3.8982 7.0231 3.96723 6.85644 3.96723 6.68267V5.96193H18.338V6.68267C18.338 6.85644 18.4071 7.0231 18.5299 7.14598C18.6528 7.26886 18.8195 7.33789 18.9932 7.33789C19.167 7.33789 19.3337 7.26886 19.4565 7.14598C19.5794 7.0231 19.6485 6.85644 19.6485 6.68267V5.96193H21.6141C21.7879 5.96193 21.9545 5.8929 22.0774 5.77002C22.2003 5.64714 22.2693 5.48048 22.2693 5.30671C22.2693 5.13293 22.2003 4.96628 22.0774 4.8434C21.9545 4.72052 21.7879 4.65149 21.6141 4.65149H0.691138C0.517363 4.65149 0.350706 4.72052 0.227828 4.8434C0.104951 4.96628 0.0359192 5.13293 0.0359192 5.30671C0.0359192 5.48048 0.104951 5.64714 0.227828 5.77002C0.350706 5.8929 0.517363 5.96193 0.691138 5.96193Z" fill="white"/>
<path d="M30.001 2.14021H31.9666V2.86095C31.9666 3.03473 32.0357 3.20138 32.1586 3.32426C32.2814 3.44714 32.4481 3.51617 32.6219 3.51617C32.7956 3.51617 32.9623 3.44714 33.0852 3.32426C33.208 3.20138 33.2771 3.03473 33.2771 2.86095V2.14021H47.6479V2.86095C47.6479 3.03473 47.7169 3.20138 47.8398 3.32426C47.9627 3.44714 48.1293 3.51617 48.3031 3.51617C48.4769 3.51617 48.6435 3.44714 48.7664 3.32426C48.8893 3.20138 48.9583 3.03473 48.9583 2.86095V2.14021H50.924C51.0977 2.14021 51.2644 2.07118 51.3873 1.9483C51.5101 1.82542 51.5792 1.65877 51.5792 1.48499C51.5792 1.31122 51.5101 1.14456 51.3873 1.02168C51.2644 0.898804 51.0977 0.829773 50.924 0.829773H30.001C29.8272 0.829773 29.6606 0.898804 29.5377 1.02168C29.4148 1.14456 29.3458 1.31122 29.3458 1.48499C29.3458 1.65877 29.4148 1.82542 29.5377 1.9483C29.6606 2.07118 29.8272 2.14021 30.001 2.14021Z" fill="white"/>
<path d="M21.265 33.7019C21.0912 33.7019 20.9246 33.7709 20.8017 33.8938C20.6788 34.0167 20.6098 34.1833 20.6098 34.3571C20.6098 34.5309 20.6788 34.6976 20.8017 34.8204C20.9246 34.9433 21.0912 35.0123 21.265 35.0123H37.3394C37.5132 35.0123 37.6798 34.9433 37.8027 34.8204C37.9256 34.6976 37.9946 34.5309 37.9946 34.3571C37.9946 34.1833 37.9256 34.0167 37.8027 33.8938C37.6798 33.7709 37.5132 33.7019 37.3394 33.7019H21.265Z" fill="white"/>
<path d="M18.4843 33.7019C18.3105 33.7019 18.1439 33.7709 18.021 33.8938C17.8981 34.0167 17.8291 34.1833 17.8291 34.3571C17.8291 34.5309 17.8981 34.6976 18.021 34.8204C18.1439 34.9433 18.3105 35.0123 18.4843 35.0123H18.8187C18.9925 35.0123 19.1592 34.9433 19.2821 34.8204C19.4049 34.6976 19.474 34.5309 19.474 34.3571C19.474 34.1833 19.4049 34.0167 19.2821 33.8938C19.1592 33.7709 18.9925 33.7019 18.8187 33.7019H18.4843Z" fill="white"/>
</svg>
