<svg width="55" height="55" viewBox="0 0 55 55" fill="none" xmlns="http://www.w3.org/2000/svg">
<path d="M52.2498 25.6668H50.4165V24.75C50.4148 23.2318 49.185 22.0019 47.6668 22.0002H34.8332C33.315 22.0019 32.0852 23.2318 32.0835 24.75V25.6668H6.41678V7.33335C6.41468 4.45645 8.63152 2.06464 11.5004 1.84854C14.3689 1.63243 16.9194 3.66506 17.3482 6.51006C14.7361 6.98758 12.8378 9.26149 12.8331 11.9168V12.8333C12.8331 13.3397 13.2439 13.7501 13.75 13.7501H22.9165C23.423 13.7501 23.8334 13.3397 23.8334 12.8333V11.9168C23.8288 9.21575 21.865 6.91751 19.1979 6.49159C18.7527 2.63112 15.3727 -0.210942 11.4933 0.0122939C7.61353 0.23595 4.58263 3.44728 4.58347 7.33335V25.6668H2.75017C1.23199 25.6685 0.00167847 26.8984 0 28.4166C0.00167847 29.5793 0.736427 30.6141 1.83331 30.9997V38.5C1.8438 45.2252 7.04201 50.8031 13.75 51.2869V52.25C13.75 53.769 14.9812 55.0001 16.5002 55.0001C18.0188 55.0001 19.2499 53.769 19.2499 52.25V51.3335H35.7501V52.25C35.7501 53.769 36.9812 55.0001 38.4998 55.0001C40.0188 55.0001 41.25 53.769 41.25 52.25V51.2869C47.958 50.8031 53.1562 45.2252 53.1667 38.5V30.9976C54.2623 30.612 54.9966 29.5781 55 28.4166C54.9929 26.9009 53.7659 25.674 52.2498 25.6668ZM22.0001 11.9168H14.6669C14.6669 9.89175 16.3084 8.25021 18.3335 8.25021C20.3585 8.25021 22.0001 9.89175 22.0001 11.9168ZM46.7499 25.6668V24.75C46.7499 24.2439 47.1603 23.8335 47.6668 23.8335C48.1728 23.8335 48.5832 24.2439 48.5832 24.75V25.6668H46.7499ZM33.9168 24.75C33.9172 24.2439 34.3272 23.8339 34.8332 23.8335H45.0857C44.977 24.1268 44.9195 24.4369 44.9166 24.75V34.8333H36.6665C36.1605 34.8333 35.7501 35.2437 35.7501 35.7502C35.7501 36.2563 36.1605 36.6666 36.6665 36.6666H44.9166V38.5H33.9168V24.75ZM17.4166 52.25C17.4166 52.7564 17.0062 53.1668 16.5002 53.1668C15.9937 53.1668 15.5833 52.7564 15.5833 52.25V51.3335H17.4166V52.25ZM39.4167 52.25C39.4167 52.7564 39.0063 53.1668 38.4998 53.1668C37.9938 53.1668 37.5834 52.7564 37.5834 52.25V51.3335H39.4167V52.25ZM40.3331 49.5002H14.6669C8.59459 49.4931 3.67374 44.5722 3.66661 38.5V31.1667H27.5C28.0061 31.1667 28.4169 30.7563 28.4169 30.2499C28.4169 29.7438 28.0061 29.3334 27.5 29.3334H2.75017C2.50301 29.3338 2.26677 29.2327 2.09724 29.0531C1.92646 28.8857 1.83121 28.6557 1.83331 28.4166C1.83414 27.9105 2.24411 27.5005 2.75017 27.5001H32.0835V38.5C32.0856 39.152 32.4347 39.7533 32.9999 40.0786V42.1666C32.9999 42.673 33.4103 43.0834 33.9168 43.0834C34.4228 43.0834 34.8332 42.673 34.8332 42.1666V40.3333H36.6665V42.1666C36.6665 42.673 37.0769 43.0834 37.5834 43.0834C38.0894 43.0834 38.4998 42.673 38.4998 42.1666V40.3333H40.3331V42.1666C40.3331 42.673 40.7439 43.0834 41.25 43.0834C41.7561 43.0834 42.1669 42.673 42.1669 42.1666V40.3333H44.0002V42.1666C44.0002 42.673 44.4106 43.0834 44.9166 43.0834C45.4231 43.0834 45.8335 42.673 45.8335 42.1666V40.0781C46.3987 39.7533 46.7478 39.152 46.7499 38.5V31.1667H51.3334V38.5C51.3267 44.5722 46.4058 49.4931 40.3331 49.5002ZM52.2498 29.3334H46.7499V27.5001H52.2498C52.4974 27.4997 52.7337 27.6012 52.9036 27.7808C53.074 27.9483 53.1688 28.1778 53.1667 28.4166C53.1663 28.9226 52.7559 29.333 52.2498 29.3334Z" fill="#B78E56"/>
<path d="M19.2499 16.4997C19.2499 15.9936 18.8395 15.5833 18.3335 15.5833C17.827 15.5833 17.4166 15.9936 17.4166 16.4997V17.4166C17.4166 17.9226 17.827 18.333 18.3335 18.333C18.8395 18.333 19.2499 17.9226 19.2499 17.4166V16.4997Z" fill="#B78E56"/>
<path d="M18.3335 20.1664C17.827 20.1664 17.4166 20.5772 17.4166 21.0832V22.0001C17.4166 22.5062 17.827 22.9165 18.3335 22.9165C18.8395 22.9165 19.2499 22.5062 19.2499 22.0001V21.0832C19.2499 20.5772 18.8395 20.1664 18.3335 20.1664Z" fill="#B78E56"/>
<path d="M15.1121 14.8095L14.4705 15.4646C14.1159 15.8263 14.1218 16.4066 14.4835 16.7612C14.8452 17.1153 15.4255 17.1095 15.7801 16.7478L16.4217 16.0932C16.7763 15.7314 16.77 15.1511 16.4087 14.7965C16.047 14.442 15.4662 14.4483 15.1121 14.8095Z" fill="#B78E56"/>
<path d="M11.9037 18.083L11.2621 18.738C10.9075 19.0998 10.9134 19.6801 11.2751 20.0342C11.6368 20.3888 12.2171 20.3829 12.5717 20.0212L13.2133 19.3662C13.5679 19.0045 13.562 18.4242 13.2003 18.07C12.8386 17.7154 12.2578 17.7213 11.9037 18.083Z" fill="#B78E56"/>
<path d="M20.2582 14.797C19.8969 15.1516 19.8915 15.7315 20.2452 16.0936L20.8868 16.7482C21.1163 16.9823 21.4529 17.0763 21.7701 16.9945C22.0873 16.9131 22.337 16.6685 22.4251 16.3529C22.5128 16.0374 22.4259 15.6992 22.1968 15.465L21.5548 14.81C21.3849 14.6363 21.1524 14.5372 20.9094 14.5347C20.6661 14.5322 20.4319 14.6266 20.2582 14.797Z" fill="#B78E56"/>
<path d="M23.4533 19.3666L24.0948 20.0216C24.3244 20.2553 24.6609 20.3493 24.9781 20.2679C25.2954 20.1861 25.545 19.9419 25.6332 19.6263C25.7209 19.3108 25.634 18.9721 25.4049 18.7384L24.7629 18.0834C24.4087 17.7217 23.8284 17.7158 23.4667 18.0704C23.105 18.4245 23.0991 19.0053 23.4533 19.3666Z" fill="#B78E56"/>
<path d="M17.4166 45.833H14.6669C10.6184 45.8284 7.33786 42.5479 7.33324 38.4998C7.33324 37.9938 6.92286 37.5834 6.4168 37.5834C5.91032 37.5834 5.49994 37.9938 5.49994 38.4998C5.50581 43.56 9.60631 47.6609 14.6669 47.6663H17.4166C17.9231 47.6663 18.3335 47.256 18.3335 46.7499C18.3335 46.2434 17.9231 45.833 17.4166 45.833Z" fill="#B78E56"/>
<path d="M6.4168 35.75C6.92286 35.75 7.33324 35.3392 7.33324 34.8332V33.9163C7.33324 33.4103 6.92286 32.9999 6.4168 32.9999C5.91032 32.9999 5.49994 33.4103 5.49994 33.9163V34.8332C5.49994 35.3392 5.91032 35.75 6.4168 35.75Z" fill="#B78E56"/>
</svg>
