<svg width="54" height="51" viewBox="0 0 54 51" fill="none" xmlns="http://www.w3.org/2000/svg">
<path d="M49.4543 29.2263H20.1011C19.9222 29.2263 19.7506 29.2974 19.6241 29.4239C19.4976 29.5504 19.4265 29.7219 19.4265 29.9008C19.4265 30.0797 19.4976 30.2513 19.6241 30.3778C19.7506 30.5043 19.9222 30.5754 20.1011 30.5754H49.4543C50.0537 30.5761 50.6282 30.8145 51.052 31.2383C51.4758 31.6621 51.7142 32.2366 51.7149 32.8359V39.6387H27.2066V32.599C27.2066 32.4201 27.1355 32.2486 27.009 32.1221C26.8825 31.9956 26.7109 31.9245 26.532 31.9245C26.3531 31.9245 26.1815 31.9956 26.055 32.1221C25.9285 32.2486 25.8575 32.4201 25.8575 32.599V39.6387H5.95818C5.77928 39.6387 5.6077 39.7097 5.4812 39.8362C5.3547 39.9627 5.28363 40.1343 5.28363 40.3132C5.28363 40.4921 5.3547 40.6637 5.4812 40.7902C5.6077 40.9167 5.77928 40.9878 5.95818 40.9878H51.7149V41.3342C51.7142 41.9335 51.4758 42.5081 51.052 42.9319C50.6282 43.3557 50.0537 43.5941 49.4543 43.5948H39.0333C38.8544 43.5948 38.6829 43.6658 38.5564 43.7923C38.4298 43.9188 38.3588 44.0904 38.3588 44.2693C38.3588 44.4482 38.4298 44.6198 38.5564 44.7463C38.6829 44.8728 38.8544 44.9439 39.0333 44.9439H40.7742L46.5165 50.2507C46.6413 50.366 46.8049 50.43 46.9747 50.4299H49.7404C49.8669 50.4298 49.991 50.3942 50.0982 50.327C50.2055 50.2598 50.2917 50.1638 50.347 50.0499C50.4023 49.936 50.4244 49.8089 50.4108 49.683C50.3973 49.5572 50.3486 49.4377 50.2703 49.3382L47.6606 46.0221C47.5499 45.8815 47.3878 45.7906 47.2101 45.7694C47.0324 45.7483 46.8536 45.7986 46.713 45.9093C46.5723 46.02 46.4815 46.182 46.4603 46.3597C46.4392 46.5375 46.4895 46.7163 46.6002 46.8569L48.3508 49.0813H47.2386L42.7622 44.9444H49.4538C50.4107 44.9428 51.3279 44.562 52.0045 43.8854C52.6811 43.2088 53.0619 42.2916 53.0635 41.3348V32.8365C53.062 31.8796 52.6814 30.9624 52.0049 30.2856C51.3284 29.6089 50.4112 29.228 49.4543 29.2263Z" fill="white"/>
<path d="M36.6503 43.5963H3.60966C3.00997 43.5958 2.43502 43.3572 2.01107 42.9331C1.58713 42.5089 1.34885 41.9338 1.34856 41.3342V32.8364C1.34928 32.2371 1.58767 31.6625 2.01145 31.2388C2.43524 30.815 3.0098 30.5766 3.60912 30.5759H17.3128C17.4917 30.5759 17.6632 30.5048 17.7897 30.3783C17.9163 30.2518 17.9873 30.0802 17.9873 29.9013C17.9873 29.7224 17.9163 29.5508 17.7897 29.4243C17.6632 29.2978 17.4917 29.2268 17.3128 29.2268H15.8703C16.0058 28.8771 16.2437 28.5765 16.5529 28.3642C16.8621 28.1519 17.2281 28.0378 17.6031 28.0369H35.4609C35.6398 28.0369 35.8114 27.9658 35.9379 27.8393C36.0644 27.7128 36.1354 27.5412 36.1354 27.3623C36.1354 27.1834 36.0644 27.0118 35.9379 26.8853C35.8114 26.7588 35.6398 26.6878 35.4609 26.6878H30.6802V25.2707H45.352C45.5309 25.2707 45.7025 25.1996 45.829 25.0731C45.9555 24.9466 46.0265 24.775 46.0265 24.5961V1.50432C46.0265 1.32542 45.9555 1.15385 45.829 1.02735C45.7025 0.900842 45.5309 0.829773 45.352 0.829773H7.71201C7.53311 0.829773 7.36153 0.900842 7.23503 1.02735C7.10853 1.15385 7.03746 1.32542 7.03746 1.50432V24.5961C7.03746 24.775 7.10853 24.9466 7.23503 25.0731C7.36153 25.1996 7.53311 25.2707 7.71201 25.2707H22.3832V26.6872H17.6031C16.8684 26.6883 16.1562 26.9408 15.5848 27.4027C15.0135 27.8646 14.6174 28.5081 14.4624 29.2262H3.60966C2.6528 29.2278 1.73558 29.6086 1.05898 30.2852C0.382376 30.9618 0.00156968 31.879 0 32.8359V41.3342C0.00156968 42.291 0.382376 43.2082 1.05898 43.8848C1.73558 44.5614 2.6528 44.9422 3.60966 44.9438H6.2539L2.79588 49.3381C2.7176 49.4376 2.66889 49.5571 2.65532 49.683C2.64175 49.8088 2.66387 49.9359 2.71915 50.0498C2.77443 50.1637 2.86064 50.2597 2.96792 50.3269C3.0752 50.3941 3.19922 50.4298 3.32581 50.4298H6.09147C6.2613 50.4299 6.4249 50.3659 6.54962 50.2506L12.2919 44.9438H36.6503C36.8292 44.9438 37.0007 44.8727 37.1272 44.7462C37.2537 44.6197 37.3248 44.4482 37.3248 44.2693C37.3248 44.0904 37.2537 43.9188 37.1272 43.7923C37.0007 43.6658 36.8292 43.5947 36.6503 43.5947V43.5963ZM44.6774 23.9216H43.4967V6.65304C43.4967 6.47414 43.4256 6.30256 43.2991 6.17606C43.1726 6.04956 43.001 5.97849 42.8221 5.97849C42.6432 5.97849 42.4717 6.04956 42.3452 6.17606C42.2187 6.30256 42.1476 6.47414 42.1476 6.65304V23.9216H10.9159V2.17888H44.6774V23.9216ZM8.38656 2.17888H9.56676V23.9216H8.38656V2.17888ZM23.7323 25.2707H29.3311V26.6872H23.7323V25.2707ZM5.82489 49.0823H4.71269L7.96834 44.9454H10.3012L5.82489 49.0823Z" fill="white"/>
<path d="M3.37221 39.6385C3.19331 39.6385 3.02174 39.7096 2.89523 39.8361C2.76873 39.9626 2.69766 40.1342 2.69766 40.3131C2.69766 40.492 2.76873 40.6636 2.89523 40.7901C3.02174 40.9166 3.19331 40.9877 3.37221 40.9877H3.6307C3.8096 40.9877 3.98118 40.9166 4.10768 40.7901C4.23418 40.6636 4.30525 40.492 4.30525 40.3131C4.30525 40.1342 4.23418 39.9626 4.10768 39.8361C3.98118 39.7096 3.8096 39.6385 3.6307 39.6385H3.37221Z" fill="white"/>
<path d="M42.8222 5.16903C43.0011 5.16903 43.1727 5.09796 43.2992 4.97146C43.4257 4.84496 43.4967 4.67338 43.4967 4.49448V4.20254C43.4967 4.02363 43.4257 3.85206 43.2992 3.72556C43.1727 3.59905 43.0011 3.52798 42.8222 3.52798C42.6433 3.52798 42.4717 3.59905 42.3452 3.72556C42.2187 3.85206 42.1476 4.02363 42.1476 4.20254V4.49448C42.1476 4.67338 42.2187 4.84496 42.3452 4.97146C42.4717 5.09796 42.6433 5.16903 42.8222 5.16903Z" fill="white"/>
<path d="M11.4366 35.1072C11.4366 35.4641 11.5425 35.813 11.7407 36.1097C11.939 36.4065 12.2209 36.6378 12.5506 36.7744C12.8803 36.911 13.2432 36.9467 13.5932 36.8771C13.9433 36.8074 14.2648 36.6356 14.5172 36.3832C14.7696 36.1308 14.9414 35.8093 15.0111 35.4592C15.0807 35.1092 15.045 34.7463 14.9084 34.4166C14.7718 34.0869 14.5405 33.805 14.2437 33.6067C13.947 33.4084 13.5981 33.3026 13.2412 33.3026C12.7628 33.3032 12.3041 33.4935 11.9658 33.8318C11.6275 34.1701 11.4372 34.6287 11.4366 35.1072Z" fill="white"/>
<path d="M41.6274 35.1072C41.6279 34.7501 41.5226 34.401 41.3246 34.1039C41.1266 33.8067 40.845 33.575 40.5153 33.438C40.1856 33.301 39.8227 33.2649 39.4725 33.3342C39.1222 33.4036 38.8004 33.5752 38.5478 33.8275C38.2951 34.0798 38.123 34.4013 38.0532 34.7514C37.9833 35.1015 38.0189 35.4645 38.1554 35.7944C38.2919 36.1243 38.5232 36.4063 38.82 36.6047C39.1168 36.8031 39.4658 36.909 39.8228 36.909C40.3008 36.9085 40.7591 36.7185 41.0973 36.3808C41.4355 36.0431 41.6261 35.5851 41.6274 35.1072Z" fill="white"/>
</svg>
