<svg width="46" height="60" viewBox="0 0 46 60" fill="none" xmlns="http://www.w3.org/2000/svg">
<path d="M42.3771 23.3107H41.3258V20.2006C41.3247 19.3013 40.9669 18.4391 40.331 17.8032C39.6951 17.1673 38.8329 16.8095 37.9335 16.8084H12.5368V4.90258C12.537 4.75815 12.5692 4.61556 12.6313 4.48517C12.6934 4.35477 12.7838 4.23984 12.8958 4.14871C13.0079 4.05759 13.1388 3.99256 13.2791 3.95836C13.4194 3.92415 13.5656 3.92162 13.707 3.95095C13.9314 4.00709 14.13 4.13776 14.2704 4.32156C14.4108 4.50536 14.4846 4.73139 14.4797 4.96262V13.0529C14.4797 13.7085 14.7401 14.3372 15.2037 14.8008C15.6673 15.2643 16.296 15.5248 16.9515 15.5248C17.6071 15.5248 18.2358 15.2643 18.6994 14.8008C19.1629 14.3372 19.4234 13.7085 19.4234 13.0529V2.47158C19.4225 2.33988 19.4486 2.2094 19.5003 2.08825C19.5519 1.96709 19.6279 1.85785 19.7236 1.76731C19.8184 1.67514 19.9315 1.60394 20.0557 1.55832C20.1798 1.51271 20.3121 1.4937 20.444 1.50254C20.7031 1.53242 20.9414 1.65883 21.1114 1.85656C21.2814 2.05429 21.3707 2.30883 21.3614 2.56944V10.0143C21.3614 10.6699 21.6219 11.2986 22.0854 11.7622C22.549 12.2257 23.1777 12.4862 23.8333 12.4862C24.4888 12.4862 25.1176 12.2257 25.5811 11.7622C26.0447 11.2986 26.3051 10.6699 26.3051 10.0143V6.82384C26.2958 6.56323 26.3851 6.30869 26.5551 6.11096C26.7251 5.91323 26.9634 5.78682 27.2225 5.75694C27.3544 5.7484 27.4867 5.76755 27.6107 5.81315C27.7348 5.85874 27.848 5.92979 27.943 6.02171C28.0386 6.11225 28.1146 6.22149 28.1663 6.34265C28.2179 6.4638 28.2441 6.59428 28.2432 6.72598V11.5838C28.2432 11.7828 28.3222 11.9737 28.463 12.1144C28.6037 12.2552 28.7946 12.3343 28.9937 12.3343C29.1927 12.3343 29.3836 12.2552 29.5243 12.1144C29.6651 11.9737 29.7442 11.7828 29.7442 11.5838V6.72417C29.7441 6.38843 29.6757 6.0562 29.5431 5.74775C29.4105 5.4393 29.2165 5.16109 28.9728 4.93009C28.7292 4.69908 28.4411 4.52012 28.126 4.40412C27.8109 4.28811 27.4755 4.23749 27.1402 4.25535C26.4954 4.3014 25.8929 4.59334 25.4571 5.07088C25.0214 5.54843 24.7857 6.17509 24.7987 6.82144V10.0149C24.7987 10.2724 24.6964 10.5194 24.5144 10.7014C24.3323 10.8835 24.0853 10.9858 23.8279 10.9858C23.5704 10.9858 23.3234 10.8835 23.1414 10.7014C22.9593 10.5194 22.857 10.2724 22.857 10.0149V2.57004C22.8701 1.9237 22.6344 1.29703 22.1986 0.819489C21.7628 0.341945 21.1603 0.049999 20.5155 0.00395344C20.1799 -0.0151246 19.8439 0.0349891 19.5285 0.151182C19.2131 0.267376 18.9249 0.447168 18.6819 0.679398C18.439 0.910796 18.2455 1.189 18.1131 1.49723C17.9808 1.80546 17.9122 2.13732 17.9116 2.47278V13.0529C17.9116 13.3104 17.8093 13.5574 17.6272 13.7394C17.4452 13.9215 17.1982 14.0238 16.9407 14.0238C16.6833 14.0238 16.4363 13.9215 16.2542 13.7394C16.0722 13.5574 15.9699 13.3104 15.9699 13.0529V4.96262C15.9786 4.38292 15.7859 3.81818 15.4247 3.36468C15.0635 2.91119 14.5561 2.59703 13.9892 2.47578C13.6307 2.40499 13.2609 2.41453 12.9065 2.50371C12.5521 2.59289 12.2218 2.7595 11.9395 2.99155C11.6571 3.2236 11.4297 3.51533 11.2736 3.84576C11.1174 4.17619 11.0365 4.53711 11.0365 4.90258V16.8084H3.39103C2.49186 16.8097 1.62989 17.1675 0.99419 17.8034C0.358489 18.4394 0.000952965 19.3015 0 20.2006V27.9217C0.00111215 28.8209 0.358801 29.6829 0.994614 30.3187C1.63043 30.9545 2.49246 31.3122 3.39163 31.3133H37.9335C38.1326 31.3133 38.3235 31.2343 38.4642 31.0935C38.605 30.9528 38.684 30.7619 38.684 30.5628C38.684 30.3638 38.605 30.1729 38.4642 30.0322C38.3235 29.8914 38.1326 29.8124 37.9335 29.8124H3.39103C2.8899 29.8116 2.40953 29.6121 2.05523 29.2577C1.70094 28.9033 1.50162 28.4228 1.50099 27.9217V22.8988C2.53727 23.758 4.2628 24.5535 7.13689 24.5535C7.75762 24.5518 8.37785 24.5181 8.99511 24.4526C9.24608 24.4266 9.50465 24.3952 9.77082 24.3584C9.96804 24.331 10.1463 24.2264 10.2664 24.0676C10.3865 23.9087 10.4385 23.7087 10.4111 23.5115C10.3838 23.3143 10.2791 23.136 10.1203 23.016C9.96152 22.8959 9.7615 22.8438 9.56429 22.8712C9.31573 22.9056 9.07437 22.9352 8.84021 22.9601C2.8903 23.5749 1.6703 20.9655 1.50099 20.4984V20.1982C1.50146 19.6969 1.70079 19.2162 2.05523 18.8617C2.40968 18.5071 2.89029 18.3076 3.39163 18.307H37.9335C38.4349 18.3076 38.9156 18.5071 39.2701 18.8616C39.6247 19.2162 39.8241 19.6968 39.8248 20.1982V20.7206C36.8342 22.2288 31.989 22.5584 28.0775 21.4819C23.4874 20.221 19.9811 20.9205 15.5412 21.8097L15.3305 21.8517C15.2322 21.8693 15.1385 21.9064 15.0547 21.9606C14.9709 22.0149 14.8988 22.0854 14.8426 22.1679C14.7864 22.2504 14.7473 22.3432 14.7274 22.4411C14.7075 22.5389 14.7074 22.6397 14.7269 22.7376C14.7465 22.8355 14.7854 22.9285 14.8413 23.0111C14.8973 23.0938 14.9692 23.1645 15.0528 23.219C15.1364 23.2735 15.23 23.3109 15.3282 23.3288C15.4264 23.3467 15.5272 23.3448 15.6247 23.3233L15.8354 23.2813C20.2465 22.3987 23.4328 21.7599 27.6788 22.9288C29.3993 23.3867 31.1729 23.6142 32.9533 23.6055C35.3021 23.638 37.6352 23.2173 39.8248 22.3663V27.9217C39.8248 28.1208 39.9039 28.3116 40.0446 28.4524C40.1853 28.5931 40.3762 28.6722 40.5753 28.6722C40.7743 28.6722 40.9652 28.5931 41.106 28.4524C41.2467 28.3116 41.3258 28.1208 41.3258 27.9217V24.8117H42.3771C42.8734 24.8125 43.3492 25.01 43.7001 25.3611C44.051 25.7121 44.2485 26.1879 44.2491 26.6843V32.7009C44.2492 33.1598 44.0808 33.6029 43.7759 33.9459C43.471 34.289 43.0508 34.5083 42.595 34.5621L23.2065 36.8436C22.3006 36.9419 21.4632 37.3717 20.855 38.0502C20.2469 38.7287 19.9111 39.6081 19.9121 40.5192V40.5438H18.2244C18.1256 40.5435 18.0277 40.5627 17.9363 40.6003C17.8449 40.6379 17.7619 40.6932 17.6919 40.763C17.622 40.8328 17.5665 40.9157 17.5287 41.007C17.4908 41.0983 17.4714 41.1961 17.4715 41.2949V55.8491C17.4715 56.6948 17.8074 57.5058 18.4054 58.1038C19.0034 58.7018 19.8145 59.0378 20.6602 59.0378C21.5059 59.0378 22.3169 58.7018 22.9149 58.1038C23.5129 57.5058 23.8489 56.6948 23.8489 55.8491V44.2284C23.8489 44.0294 23.7698 43.8385 23.6291 43.6978C23.4883 43.557 23.2974 43.4779 23.0984 43.4779C22.8993 43.4779 22.7085 43.557 22.5677 43.6978C22.427 43.8385 22.3479 44.0294 22.3479 44.2284V55.8497C22.3479 56.2973 22.1701 56.7266 21.8536 57.0431C21.5371 57.3596 21.1078 57.5374 20.6602 57.5374C20.2126 57.5374 19.7833 57.3596 19.4668 57.0431C19.1503 56.7266 18.9725 56.2973 18.9725 55.8497V42.0454H23.0984C23.2974 42.0454 23.4883 41.9663 23.6291 41.8256C23.7698 41.6848 23.8489 41.494 23.8489 41.2949C23.8489 41.0959 23.7698 40.905 23.6291 40.7642C23.4883 40.6235 23.2974 40.5444 23.0984 40.5444H21.4125V40.5198C21.4121 39.9774 21.6126 39.4541 21.9752 39.0508C22.3379 38.6475 22.837 38.3927 23.3764 38.3356L42.7691 36.0541C43.5906 35.9577 44.3481 35.5629 44.8977 34.9447C45.4472 34.3265 45.7506 33.528 45.7501 32.7009V26.6843C45.7491 25.79 45.3935 24.9325 44.7611 24.3001C44.1288 23.6676 43.2714 23.3118 42.3771 23.3107Z" fill="#B78E56"/>
<path d="M28.999 13.5087C28.8 13.5087 28.6091 13.5877 28.4684 13.7285C28.3276 13.8692 28.2485 14.0601 28.2485 14.2592V14.5594C28.2485 14.7584 28.3276 14.9493 28.4684 15.09C28.6091 15.2308 28.8 15.3099 28.999 15.3099C29.1981 15.3099 29.389 15.2308 29.5297 15.09C29.6705 14.9493 29.7495 14.7584 29.7495 14.5594V14.2592C29.7495 14.0601 29.6705 13.8692 29.5297 13.7285C29.389 13.5877 29.1981 13.5087 28.999 13.5087Z" fill="#B78E56"/>
<path d="M12.3321 22.4292C12.1479 22.4626 11.9827 22.5636 11.8692 22.7125C11.7556 22.8613 11.7017 23.0472 11.7182 23.2337C11.7347 23.4203 11.8203 23.5939 11.9582 23.7205C12.0961 23.8472 12.2764 23.9177 12.4636 23.9182C12.5081 23.9181 12.5525 23.9141 12.5963 23.9062L13.0634 23.8216C13.2592 23.7855 13.4326 23.6731 13.5455 23.5092C13.6585 23.3453 13.7016 23.1432 13.6656 22.9474C13.6295 22.7516 13.5171 22.5782 13.3532 22.4652C13.1893 22.3523 12.9872 22.3091 12.7914 22.3452L12.3321 22.4292Z" fill="#B78E56"/>
</svg>
