<svg width="110" height="29" viewBox="0 0 110 29" fill="none" xmlns="http://www.w3.org/2000/svg">
<g clip-path="url(#clip0_5_31)">
<path d="M28.0987 20.129C28.7091 21.7792 29.3398 23.4295 29.9502 25.0797C30.0723 25.4057 30.2961 25.7724 30.6217 25.7317C31.0083 25.6706 31.049 25.1409 30.9676 24.7538C30.7641 23.5925 30.4589 22.4516 30.0723 21.331C29.9299 20.9032 29.7671 20.4549 29.8282 20.0067C29.8892 19.5585 30.2758 19.1307 30.7234 19.1714C31.1914 19.2325 31.4559 19.7419 31.6187 20.1901C32.0663 21.3921 32.5139 22.5738 32.9615 23.7758C33.0429 24.0203 33.226 24.3055 33.4702 24.2648C33.7551 24.224 33.7957 23.8369 33.7754 23.5721C33.6126 21.7589 33.165 19.9864 32.4325 18.3157C31.0489 19.1714 29.7264 19.8641 28.0987 20.129Z" fill="#967348"/>
<path d="M9.21703 18.3157C8.83045 19.3548 8.46421 20.4142 8.22005 21.4736C8.09797 22.0441 8.87114 22.3701 9.17634 21.8607C9.44084 21.3921 9.66466 20.9032 9.84778 20.4142C10.0106 19.966 10.1326 19.477 10.5803 19.2122C10.8041 19.0696 10.8041 19.6808 11.0279 19.8437C11.3941 20.129 11.5976 20.0271 11.4348 20.455C10.9058 22.0033 10.3564 23.5517 9.84778 25.1205C9.74604 25.4261 9.64431 25.7521 9.74604 26.078C9.80708 26.241 9.92916 26.3836 10.1123 26.4244C10.4989 26.5262 10.7837 26.1595 10.9872 25.8336C12.1673 23.7962 13.0829 21.5959 13.7136 19.314C13.2864 20.4346 10.1123 19.4567 9.21703 18.3157Z" fill="#967348"/>
<path d="M40.388 3.44314C40.0421 2.17998 38.6179 1.44653 37.3157 1.42616C35.9931 1.40579 34.752 1.91512 33.5109 2.34297C26.5116 4.80816 18.7392 5.05264 11.5976 3.07641C9.70532 2.5467 7.9962 1.26317 5.94119 1.56877C4.57797 1.77251 3.25544 2.97454 3.43856 4.33957C3.51994 4.91003 3.82514 5.39899 4.13034 5.86758C5.75807 8.47539 7.50788 11.0017 9.66462 13.1817C11.8214 15.3413 14.4461 17.1341 17.3963 17.9083C21.5471 19.0085 26.064 18.0102 29.7874 15.871C33.5109 13.7317 34.0399 11.2054 39.1265 7.11036C40.1642 6.27505 40.7543 4.74704 40.388 3.44314ZM25.9826 16.6248C24.1921 17.4805 22.3202 17.9083 20.5704 17.8676C18.8206 17.9083 16.9691 17.4805 15.1786 16.6248C13.3474 15.7487 11.7603 14.5467 10.4174 13.4261C12.1876 13.0187 13.9985 12.6927 15.789 12.4075C18.9834 11.9185 22.1981 11.9185 25.3926 12.4075C27.1831 12.6723 28.9939 13.0187 30.7641 13.4261C29.4008 14.5467 27.8138 15.7487 25.9826 16.6248Z" fill="#F4B978"/>
<path d="M40.388 3.44314C40.0421 2.17998 38.6179 1.44653 37.3157 1.42616C35.9932 1.40579 34.752 1.91512 33.5109 2.34297C27.6103 4.40069 21.1808 4.91003 15.0361 3.85061C16.2366 4.40069 17.5591 4.70629 18.8816 4.84891C21.3029 5.09339 23.7445 4.80816 26.1861 4.70629C27.122 4.66555 28.119 4.66555 28.9125 5.15451C30.2758 5.98982 30.5199 7.98642 29.8485 9.45332C29.2584 10.7776 28.119 11.7555 26.9796 12.6723C28.2411 12.8964 29.5026 13.1409 30.7641 13.4261C30.0112 14.0577 29.177 14.7097 28.2614 15.3209C28.648 15.6061 29.0956 15.8506 29.5636 16.0136C29.645 15.9728 29.7264 15.9321 29.8078 15.871C33.5312 13.7318 34.0602 11.2054 39.1469 7.11036C40.1642 6.27505 40.7543 4.74704 40.388 3.44314Z" fill="#D8A466"/>
<path d="M28.9736 12.9168C29.5026 12.9983 30.174 13.202 30.2147 13.7317C30.2554 14.1188 29.9299 14.4244 29.645 14.6689C27.061 16.7877 23.7241 17.9694 20.3873 17.9694C18.6578 17.9694 16.9284 17.6434 15.321 17.0322C14.5478 16.747 11.3738 15.6672 11.74 14.4244C12.0248 13.5076 13.1032 13.2224 13.9171 13.1001C15.26 12.9168 16.6435 12.8556 18.0067 12.7742C21.6691 12.5704 25.3722 12.4074 28.9736 12.9168Z" fill="#F4B978"/>
<path d="M8.46417 16.5229C9.68497 18.1935 11.4755 19.4159 13.4491 19.9456C15.4227 20.4753 17.5184 20.3123 19.5734 20.2716C21.7709 20.2105 23.9886 20.2716 26.1861 19.9863C28.3835 19.6807 30.5606 18.988 32.2697 17.6026C33.9788 16.1969 35.688 13.4668 35.4438 11.2665C35.4031 10.9609 36.1152 8.7198 34.4265 11.1035C34.3451 11.2257 34.1416 11.1646 34.0195 11.2257C32.0052 12.3259 30.5403 14.2206 28.6887 15.5653C25.3926 17.949 20.9773 18.4583 17.0505 17.4397C14.7716 16.8081 12.6149 15.7283 10.7023 14.3225C9.72567 13.6298 8.83041 12.8352 7.95551 12.0203C7.75204 11.8166 7.24338 11.185 6.87714 11.4091C6.53125 11.6128 6.8161 12.5093 6.87714 12.8352C7.14164 14.1595 7.67066 15.4431 8.46417 16.5229Z" fill="#F4B978"/>
<path d="M31.6593 12.9779C31.4762 13.1409 31.2931 13.3242 31.1099 13.4872C30.9879 15.0967 29.9095 16.5432 28.5463 17.4193C27.1017 18.3565 25.3722 18.7436 23.6834 18.9473C21.9743 19.1714 20.2652 19.2325 18.5764 19.5993C17.6405 19.803 16.6842 20.1086 15.7279 20.292C17.0097 20.3735 18.2916 20.292 19.5734 20.2716C21.7709 20.2105 23.9886 20.2716 26.1861 19.9864C28.3835 19.6808 30.5606 18.9881 32.2697 17.6027C33.9788 16.1969 35.6879 13.4669 35.4438 11.2665C35.4234 11.1035 35.6269 10.3905 35.5455 10.1052C35.342 10.2886 35.1386 10.4719 34.9555 10.6553C33.9178 11.5925 32.9005 12.4074 31.6593 12.9779Z" fill="#D8A466"/>
<path d="M41.1005 2.72978C40.7953 1.07953 39.0659 0.121972 37.5399 0.020105C36.1563 -0.0613889 34.8338 0.346081 33.5519 0.753551C33.4095 0.794298 33.2671 0.855418 33.1043 0.896165C29.0553 2.15932 24.8436 2.81127 20.5708 2.7909C16.3183 2.7909 12.0862 2.15932 8.03726 0.896165C7.89483 0.855418 7.7524 0.794298 7.58963 0.753551C6.30779 0.346081 4.98526 -0.0817624 3.60169 0.020105C2.05535 0.121972 0.346234 1.07953 0.0410344 2.72978C-0.121739 3.56509 0.102074 4.50227 0.692126 5.37833C1.18045 6.13215 1.85188 6.70261 2.48263 7.27307L4.51729 9.08631C4.7411 9.71789 4.94457 10.3698 5.10734 11.0218C5.22942 11.4904 5.33116 11.959 5.41254 12.4276C5.71774 13.8741 6.04329 15.3817 6.83681 16.6856C7.22339 17.3172 7.7524 17.8877 8.34246 18.3766L6.5723 24.2442C6.47057 24.5702 6.53161 24.9165 6.73507 25.1814C6.93854 25.4462 7.24374 25.6092 7.58963 25.6092C8.01691 25.6092 8.4035 25.3444 8.56627 24.9369L10.6416 19.7213C10.7434 19.762 10.8654 19.8028 10.9672 19.8435L8.81043 26.9946C8.7087 27.341 8.76974 27.7281 8.99355 28.0133C9.21736 28.3189 9.56325 28.4819 9.92949 28.4819C10.3975 28.4819 10.8247 28.1966 11.0079 27.7484L13.8971 20.5158C13.9785 20.5158 14.0395 20.5362 14.1209 20.5362C15.7079 20.6992 17.3153 20.6177 18.9634 20.5362C20.0214 20.4751 21.0794 20.4751 22.1375 20.5362C23.0734 20.5973 24.0094 20.6381 24.9453 20.6381C25.6371 20.6381 26.3085 20.6177 26.98 20.5362C27.0613 20.5362 27.1224 20.5158 27.2038 20.5158L30.093 27.7484C30.2761 28.1966 30.683 28.4819 31.1714 28.4819C31.5376 28.4819 31.8835 28.3189 32.1073 28.0133C32.3311 27.7077 32.3922 27.341 32.2904 26.9946L30.1337 19.8435C30.2558 19.8028 30.3575 19.762 30.4592 19.7213L32.5346 24.9369C32.6974 25.3444 33.084 25.6092 33.5112 25.6092C33.8571 25.6092 34.1623 25.4462 34.3658 25.1814C34.5693 24.9165 34.6303 24.5702 34.5286 24.2442L32.7584 18.3562C33.3688 17.8673 33.8775 17.2968 34.2641 16.6652C35.0779 15.3613 35.3831 13.8741 35.6883 12.4072C35.79 11.9386 35.8918 11.47 35.9935 11.0014C36.1563 10.3495 36.3598 9.69751 36.5836 9.06594L38.6182 7.25269C39.2693 6.68224 39.9204 6.09141 40.4087 5.35796C41.0191 4.50227 41.2429 3.56509 41.1005 2.72978ZM8.03726 24.6924C7.97622 24.8554 7.81344 24.9776 7.63032 24.9776C7.4879 24.9776 7.36582 24.9165 7.28443 24.7943C7.20305 24.672 7.1827 24.5294 7.22339 24.4072L8.93251 18.7637C9.29875 19.0286 9.70568 19.2527 10.1533 19.4564L8.03726 24.6924ZM10.4585 27.5243C10.3771 27.7281 10.1737 27.8707 9.94984 27.8707C9.76672 27.8707 9.60395 27.7892 9.50221 27.6466C9.40048 27.5039 9.35979 27.3206 9.42083 27.1576L11.5776 20.0269C12.1269 20.1899 12.6966 20.3325 13.2867 20.4343L10.4585 27.5243ZM31.7207 27.1576C31.7818 27.3206 31.7411 27.5039 31.6393 27.6466C31.5376 27.7892 31.3748 27.8707 31.1917 27.8707C30.9679 27.8707 30.7644 27.7281 30.683 27.5243L27.8549 20.4343C28.4449 20.3325 29.0146 20.2102 29.564 20.0269L31.7207 27.1576ZM33.9385 24.4072C33.9792 24.5498 33.9589 24.6924 33.8775 24.7943C33.7961 24.9165 33.674 24.9776 33.5316 24.9776C33.3485 24.9776 33.1857 24.8758 33.1246 24.6924L31.0289 19.4564C31.4562 19.2527 31.8632 19.0082 32.2497 18.7637L33.9385 24.4072ZM35.4238 10.8588C35.3017 11.3274 35.2 11.8164 35.0983 12.2849C34.7931 13.6907 34.4879 15.1372 33.7554 16.3393C32.5142 18.3155 30.032 19.6194 26.9393 19.9454C25.3929 20.1084 23.8059 20.0269 22.1985 19.925C21.6695 19.8843 21.1201 19.8843 20.5708 19.8843C20.0214 19.8843 19.4924 19.9046 18.943 19.925C17.3153 20.0269 15.7486 20.088 14.2023 19.9454C11.1096 19.6398 8.62731 18.3155 7.38617 16.3393C6.63334 15.1372 6.32814 13.6907 6.04329 12.2849C5.94155 11.8164 5.83982 11.3274 5.71774 10.8588C5.63636 10.5328 5.53462 10.2069 5.45324 9.88088L7.69136 11.8775C8.13899 12.2849 8.60696 12.6924 9.07493 13.0999L9.29875 13.2832L9.54291 13.487C9.5836 13.5277 9.64464 13.5685 9.68533 13.6092C9.80741 13.7111 9.94984 13.8333 10.0719 13.9352C10.2754 14.0982 10.4789 14.2815 10.7027 14.4445L10.723 14.4649C10.8858 14.6075 11.0689 14.7298 11.2317 14.8724C11.2927 14.9131 11.3538 14.9742 11.4148 15.015C11.5572 15.1372 11.72 15.2391 11.8624 15.341C11.9031 15.3817 11.9438 15.4021 11.9845 15.4428C12.1676 15.5855 12.3711 15.7077 12.5542 15.8299C12.6152 15.8707 12.6763 15.9114 12.7373 15.9522C12.9204 16.0744 13.1036 16.1967 13.2867 16.2985C13.307 16.3189 13.3477 16.3393 13.3681 16.3393C13.5919 16.4615 13.7954 16.5838 14.0192 16.706C14.0802 16.7264 14.1209 16.7671 14.1819 16.7875C14.4057 16.9097 14.6499 17.032 14.8737 17.1338C16.6439 17.9895 18.5158 18.4377 20.2656 18.4377C20.3673 18.4377 20.4487 18.4377 20.5301 18.4377C22.3613 18.4785 24.3349 18.0303 26.2068 17.1338C26.451 17.0116 26.6748 16.9097 26.8986 16.7875C26.9596 16.7671 27.0003 16.7264 27.0613 16.706C27.2852 16.5838 27.509 16.4615 27.7124 16.3393C27.7328 16.3189 27.7735 16.2985 27.7938 16.2985C27.9769 16.1763 28.1601 16.0744 28.3432 15.9522C28.4042 15.9114 28.4653 15.8707 28.5263 15.8299C28.7298 15.7077 28.9129 15.5651 29.096 15.4428C29.1367 15.4225 29.1774 15.3817 29.2181 15.3613C29.3809 15.2391 29.5436 15.1372 29.6861 15.015C29.7471 14.9742 29.8081 14.9335 29.8692 14.8928C30.1947 14.6483 30.4999 14.4038 30.8051 14.1593C30.8662 14.1186 30.9069 14.0778 30.9679 14.0167C31.1714 13.8537 31.3748 13.6907 31.558 13.5277L31.8225 13.3036L32.0259 13.1406C32.4939 12.7332 32.9619 12.3257 33.4095 11.9182L35.6476 9.92162C35.5866 10.2069 35.5052 10.5328 35.4238 10.8588ZM10.3975 13.4259C12.1676 13.0184 13.9785 12.6924 15.769 12.4072C18.9634 11.9182 22.1782 11.9182 25.3726 12.4072C27.1631 12.672 28.9739 13.0184 30.7441 13.4259C29.4012 14.5464 27.8142 15.7484 25.9626 16.6245C24.1721 17.4802 22.3002 17.908 20.5504 17.8673C18.8006 17.908 16.9491 17.4802 15.1586 16.6245C13.3274 15.7484 11.7403 14.5464 10.3975 13.4259ZM39.9408 5.03198C39.4931 5.70431 38.8624 6.27477 38.252 6.82485L33.0433 11.4496C32.4735 11.959 31.9038 12.4479 31.3341 12.9573C29.4012 12.5091 27.4276 12.122 25.4743 11.8367C22.2189 11.3478 18.943 11.3478 15.6876 11.8367C13.7343 12.1423 11.7607 12.5091 9.82776 12.9573C9.23771 12.4683 8.668 11.959 8.11864 11.4496L2.88956 6.80448C2.27916 6.25439 1.64842 5.70431 1.20079 5.01161C0.712473 4.27816 0.529353 3.50397 0.651433 2.83165C0.895593 1.487 2.36055 0.712804 3.66273 0.63131C3.76447 0.610936 3.88655 0.610936 3.98828 0.610936C5.12769 0.610936 6.28745 0.977659 7.40651 1.34438C7.54894 1.38513 7.71171 1.44625 7.85414 1.487C11.9642 2.77053 16.2369 3.42248 20.5708 3.4021C24.9046 3.4021 29.1774 2.77053 33.2874 1.487C33.4298 1.44625 33.5926 1.38513 33.735 1.34438C34.9558 0.957286 36.2377 0.549816 37.4992 0.63131C38.8013 0.712804 40.246 1.50737 40.5105 2.85202C40.6122 3.52435 40.4291 4.29854 39.9408 5.03198Z" fill="#B78E56"/>
<path d="M18.1288 5.62305C15.4227 5.31745 12.737 4.70624 10.1733 3.78944C9.50185 3.54496 8.83041 3.2801 8.11828 3.19861C7.40615 3.09674 6.65332 3.19861 6.06327 3.60608C5.47322 4.01355 5.14767 4.80811 5.37148 5.48044C5.83946 4.50251 7.0806 4.01355 8.15897 4.01355C9.23734 4.01355 10.275 4.38027 11.3127 4.68587C13.4898 5.31745 15.85 5.56193 18.1288 5.62305Z" fill="#FAFAFA"/>
<path d="M12.9201 14.9541C12.9405 14.6893 13.0625 14.4448 13.2457 14.2207C13.4288 14.0169 13.6526 13.8539 13.8967 13.7317C14.1409 13.6095 14.4054 13.528 14.6699 13.4668C14.9344 13.4057 15.1786 13.3854 15.4431 13.3446C15.9518 13.2835 16.4808 13.2427 16.9894 13.2427C17.4981 13.2427 18.0271 13.2427 18.5358 13.3039C18.0271 13.4261 17.5184 13.4872 17.0098 13.5687L15.4838 13.7521C14.9751 13.8132 14.4665 13.8539 14.0188 14.0169C13.5509 14.1799 13.1439 14.4651 12.9201 14.9541Z" fill="white"/>
</g>
<path d="M46.6022 20.9821V19.0977L47.7221 18.9362L52.7079 5.30344H55.9276L60.881 18.9362L62.0009 19.0977V20.9821H56.6598V19.0977L57.7474 18.9039L57.0583 16.7502H51.5449L50.8557 18.9039L51.9433 19.0977V20.9821H46.6022ZM52.2879 14.435H56.3153L54.4846 9.06159L54.3339 8.58778H54.2693L54.1077 9.09389L52.2879 14.435ZM63.3578 20.9821V19.0977L64.8653 18.7746V11.5491L63.1962 11.226V9.3308H67.7943L67.9128 10.7738L67.9343 11.0322C68.5086 9.75435 69.3701 9.11543 70.5187 9.11543C70.7054 9.11543 70.9064 9.12979 71.1217 9.1585C71.3443 9.18722 71.5453 9.23029 71.7248 9.28772L71.3909 12.1844L69.8295 12.0983C69.3844 12.0767 69.0219 12.1521 68.7419 12.3244C68.4691 12.4967 68.225 12.7444 68.0097 13.0674V18.7746L69.5172 19.0977V20.9821H63.3578ZM77.9273 21.2083C76.8074 21.2083 75.8383 20.957 75.0199 20.4545C74.2087 19.952 73.5841 19.2592 73.1462 18.3762C72.7083 17.4932 72.4893 16.4774 72.4893 15.3288V15.0057C72.4893 13.8643 72.7119 12.852 73.1569 11.969C73.602 11.0789 74.2302 10.3825 75.0414 9.87998C75.8526 9.37028 76.8074 9.11543 77.9058 9.11543C78.9467 9.11543 79.8477 9.28055 80.6086 9.61078C81.3696 9.93383 81.987 10.3107 82.4608 10.7415L82.4393 14.0796H80.0702L79.6503 12.0013C79.478 11.8291 79.259 11.6891 78.9934 11.5814C78.7278 11.4737 78.4586 11.4199 78.1858 11.4199C77.3243 11.4199 76.6818 11.7393 76.2582 12.3782C75.8419 13.01 75.6337 13.8858 75.6337 15.0057V15.3288C75.6337 16.5276 75.8598 17.4071 76.3121 17.967C76.7643 18.5198 77.3099 18.7962 77.9489 18.7962C78.5016 18.7962 78.9431 18.6526 79.2734 18.3654C79.6108 18.0711 79.8441 17.6583 79.9733 17.1271H82.6546L82.6869 17.1917C82.5003 18.4336 82.0408 19.4136 81.3086 20.1314C80.5763 20.8493 79.4492 21.2083 77.9273 21.2083ZM83.9253 20.9821V19.0977L85.4436 18.7746V6.40181L83.7638 6.07876V4.18353H88.5772V10.8168C88.9433 10.2784 89.3956 9.86204 89.934 9.5677C90.4796 9.26619 91.097 9.11543 91.7862 9.11543C92.9563 9.11543 93.8824 9.50668 94.5644 10.2892C95.2536 11.0645 95.5982 12.267 95.5982 13.8966V18.7746L97.1057 19.0977V20.9821H91.097V19.0977L92.4538 18.7746V13.875C92.4538 13.0351 92.2959 12.4393 91.98 12.0875C91.6641 11.7357 91.2011 11.5598 90.5909 11.5598C89.7079 11.5598 89.0367 11.9044 88.5772 12.5936V18.7746L89.934 19.0977V20.9821H83.9253ZM102.016 21.2083C100.86 21.2083 99.9414 20.8996 99.2594 20.2822C98.5774 19.6576 98.2364 18.8105 98.2364 17.7409C98.2364 16.6497 98.6779 15.7595 99.5609 15.0703C100.451 14.3812 101.758 14.0366 103.481 14.0366H105.02V13.1751C105.02 12.6151 104.855 12.1629 104.525 11.8183C104.202 11.4665 103.714 11.2906 103.061 11.2906C102.723 11.2906 102.418 11.3337 102.145 11.4199C101.88 11.4988 101.639 11.6137 101.424 11.7644L101.176 13.3043H98.9148L98.8717 10.2784C99.482 9.93383 100.142 9.65385 100.853 9.43848C101.564 9.22311 102.357 9.11543 103.233 9.11543C104.755 9.11543 105.957 9.47079 106.84 10.1815C107.723 10.8922 108.165 11.9008 108.165 13.2074V18.0101C108.165 18.168 108.165 18.3224 108.165 18.4731C108.172 18.6239 108.186 18.7746 108.208 18.9254L109.425 19.0977V20.9821H105.527C105.448 20.7811 105.369 20.5658 105.29 20.336C105.211 20.1063 105.153 19.8766 105.117 19.6469C104.744 20.1207 104.303 20.5012 103.793 20.7883C103.29 21.0683 102.698 21.2083 102.016 21.2083ZM102.856 18.8823C103.294 18.8823 103.707 18.7854 104.094 18.5916C104.489 18.3906 104.798 18.1285 105.02 17.8055V15.9641H103.47C102.781 15.9641 102.257 16.122 101.898 16.4379C101.546 16.7538 101.37 17.1343 101.37 17.5794C101.37 17.9957 101.499 18.3188 101.758 18.5485C102.023 18.771 102.389 18.8823 102.856 18.8823Z" fill="#443A39"/>
<defs>
<clipPath id="clip0_5_31">
<rect width="41.1409" height="28.4821" fill="white"/>
</clipPath>
</defs>
</svg>
