<svg width="151" height="39" viewBox="0 0 151 39" fill="none" xmlns="http://www.w3.org/2000/svg">
<g clip-path="url(#clip0_40_2)">
<path d="M38.4749 27.5624C39.3107 29.8221 40.1744 32.0817 41.0102 34.3414C41.1773 34.7877 41.4838 35.2899 41.9296 35.2341C42.4589 35.1504 42.5146 34.4251 42.4032 33.895C42.1246 32.3049 41.7067 30.7427 41.1774 29.2083C40.9823 28.6225 40.7594 28.0088 40.843 27.395C40.9266 26.7813 41.456 26.1955 42.0689 26.2513C42.7097 26.335 43.0718 27.0324 43.2947 27.6461C43.9076 29.292 44.5206 30.9101 45.1335 32.556C45.2449 32.8907 45.4957 33.2813 45.83 33.2255C46.22 33.1697 46.2758 32.6397 46.2479 32.277C46.025 29.7942 45.4121 27.3671 44.4091 25.0796C42.5146 26.2513 40.7037 27.1998 38.4749 27.5624Z" fill="#967348"/>
<path d="M12.6207 25.0796C12.0913 26.5023 11.5898 27.953 11.2555 29.4036C11.0883 30.1847 12.147 30.6311 12.5649 29.9337C12.9271 29.292 13.2336 28.6225 13.4843 27.953C13.7072 27.3392 13.8744 26.6697 14.4873 26.3071C14.7937 26.1118 14.7937 26.9487 15.1002 27.1719C15.6017 27.5624 15.8803 27.4229 15.6574 28.0088C14.933 30.1289 14.1808 32.2491 13.4843 34.3972C13.345 34.8156 13.2057 35.262 13.345 35.7083C13.4286 35.9315 13.5958 36.1268 13.8465 36.1826C14.3758 36.3221 14.7659 35.8199 15.0445 35.3736C16.6604 32.5839 17.9141 29.571 18.7778 26.4465C18.1927 27.9809 13.8465 26.6418 12.6207 25.0796Z" fill="#967348"/>
<path d="M55.3025 4.71476C54.8288 2.98515 52.8786 1.98086 51.0956 1.95296C49.2847 1.92506 47.5852 2.62249 45.8857 3.20832C36.3018 6.58386 25.6592 6.91862 15.8803 4.21262C13.2893 3.48729 10.949 1.72978 8.13515 2.14824C6.26851 2.42721 4.4576 4.07313 4.70834 5.94223C4.81978 6.72334 5.23769 7.39287 5.65559 8.0345C7.8844 11.6053 10.2804 15.0645 13.2336 18.0495C16.1867 21.0066 19.7807 23.4615 23.8204 24.5216C29.5039 26.0281 35.6889 24.6611 40.7873 21.7319C45.8857 18.8027 46.6101 15.3435 53.5751 9.73622C54.996 8.59244 55.804 6.50017 55.3025 4.71476ZM35.5774 22.7641C33.1257 23.9358 30.5626 24.5216 28.1666 24.4658C25.7707 24.5216 23.2354 23.9358 20.7837 22.7641C18.2763 21.5645 16.1032 19.9186 14.2644 18.3843C16.6882 17.8263 19.1678 17.38 21.6195 16.9894C25.9935 16.3199 30.3954 16.3199 34.7695 16.9894C37.2212 17.3521 39.7008 17.8263 42.1246 18.3843C40.258 19.9186 38.0849 21.5645 35.5774 22.7641Z" fill="#F4B978"/>
<path d="M55.3025 4.71476C54.8288 2.98515 52.8786 1.98086 51.0956 1.95296C49.2847 1.92506 47.5852 2.62249 45.8857 3.20832C37.8063 6.02592 29.0024 6.72335 20.5887 5.2727C22.2324 6.02592 24.0433 6.44438 25.8542 6.63965C29.1696 6.97442 32.5128 6.58386 35.856 6.44438C37.1376 6.38858 38.5028 6.38858 39.5893 7.05811C41.4559 8.20189 41.7903 10.9358 40.8709 12.9444C40.0629 14.7577 38.5028 16.0967 36.9426 17.3521C38.6699 17.659 40.3973 17.9937 42.1246 18.3843C41.0938 19.2491 39.9515 20.1418 38.6978 20.9787C39.2271 21.3693 39.8401 21.704 40.4808 21.9272C40.5923 21.8714 40.7037 21.8156 40.8152 21.7319C45.9136 18.8027 46.6379 15.3435 53.603 9.73622C54.996 8.59245 55.804 6.50017 55.3025 4.71476Z" fill="#D8A466"/>
<path d="M39.6729 17.687C40.3973 17.7986 41.3167 18.0776 41.3724 18.8029C41.4281 19.3329 40.9823 19.7514 40.5923 20.0861C37.0541 22.9874 32.485 24.6055 27.9159 24.6055C25.5478 24.6055 23.1797 24.1591 20.9787 23.3222C19.92 22.9316 15.5738 21.4531 16.0753 19.7514C16.4654 18.496 17.942 18.1055 19.0564 17.9381C20.8951 17.687 22.7896 17.6033 24.6563 17.4917C29.6711 17.2128 34.7417 16.9896 39.6729 17.687Z" fill="#F4B978"/>
<path d="M11.5898 22.624C13.2614 24.9116 15.7131 26.5854 18.4156 27.3107C21.118 28.036 23.9876 27.8129 26.8015 27.7571C29.8104 27.6734 32.8472 27.7571 35.8561 27.3665C38.865 26.9481 41.846 25.9996 44.1863 24.1026C46.5265 22.1777 48.8668 18.4395 48.5325 15.4266C48.4767 15.0081 49.4518 11.9395 47.1394 15.2034C47.028 15.3708 46.7494 15.2871 46.5822 15.3708C43.8241 16.8772 41.8181 19.4717 39.2829 21.3129C34.7695 24.5768 28.7239 25.2742 23.3468 23.8794C20.2265 23.0146 17.2733 21.536 14.6545 19.6112C13.3172 18.6627 12.0913 17.5747 10.8933 16.4588C10.6147 16.1798 9.91822 15.315 9.41673 15.6219C8.94311 15.9009 9.33315 17.1283 9.41673 17.5747C9.77892 19.388 10.5033 21.1455 11.5898 22.624Z" fill="#F4B978"/>
<path d="M43.3505 17.7709C43.0997 17.9941 42.849 18.2451 42.5982 18.4683C42.4311 20.6722 40.9545 22.6529 39.0878 23.8524C37.1098 25.1357 34.7417 25.6657 32.4293 25.9447C30.089 26.2516 27.7487 26.3353 25.4363 26.8374C24.1548 27.1164 22.8453 27.5348 21.5359 27.7859C23.2911 27.8975 25.0463 27.7859 26.8015 27.758C29.8104 27.6743 32.8472 27.758 35.8561 27.3674C38.865 26.949 41.846 26.0005 44.1863 24.1035C46.5265 22.1786 48.8668 18.4404 48.5325 15.4275C48.5046 15.2044 48.7832 14.228 48.6718 13.8374C48.3932 14.0885 48.1145 14.3395 47.8638 14.5906C46.4429 15.8739 45.0499 16.9898 43.3505 17.7709Z" fill="#D8A466"/>
<path d="M56.2788 3.73749C55.8609 1.47783 53.4928 0.166676 51.4033 0.0271911C49.5088 -0.0843969 47.6979 0.473543 45.9427 1.03148C45.7477 1.08728 45.5527 1.17097 45.3298 1.22676C39.7856 2.95638 34.0185 3.84908 28.1679 3.82118C22.3451 3.82118 16.5502 2.95638 11.006 1.22676C10.811 1.17097 10.616 1.08728 10.3931 1.03148C8.63789 0.473543 6.82697 -0.112294 4.93248 0.0271911C2.8151 0.166676 0.474846 1.47783 0.0569434 3.73749C-0.165938 4.88127 0.140524 6.16453 0.94847 7.3641C1.61711 8.39629 2.5365 9.17741 3.40017 9.95852L6.18619 12.4414C6.49265 13.3062 6.77125 14.1989 6.99413 15.0916C7.16129 15.7332 7.3006 16.3748 7.41204 17.0165C7.82994 18.9971 8.2757 21.0615 9.36225 22.8469C9.89159 23.7117 10.616 24.4929 11.4239 25.1624L9.00007 33.1967C8.86077 33.6431 8.94435 34.1173 9.22295 34.48C9.50155 34.8426 9.91946 35.0658 10.3931 35.0658C10.9781 35.0658 11.5075 34.7032 11.7304 34.1452L14.5721 27.0036C14.7114 27.0594 14.8786 27.1152 15.0179 27.171L12.0647 36.9628C11.9254 37.4371 12.009 37.9671 12.3154 38.3577C12.6219 38.7761 13.0955 38.9993 13.597 38.9993C14.2378 38.9993 14.8229 38.6087 15.0736 37.995L19.0297 28.0916C19.1412 28.0916 19.2248 28.1195 19.3362 28.1195C21.5093 28.3426 23.7103 28.2311 25.9669 28.1195C27.4157 28.0358 28.8644 28.0358 30.3131 28.1195C31.5947 28.2032 32.8763 28.259 34.1578 28.259C35.1051 28.259 36.0245 28.2311 36.9439 28.1195C37.0553 28.1195 37.1389 28.0916 37.2503 28.0916L41.2065 37.995C41.4572 38.6087 42.0144 38.9993 42.6831 38.9993C43.1845 38.9993 43.6582 38.7761 43.9646 38.3577C44.2711 37.9392 44.3547 37.4371 44.2154 36.9628L41.2622 27.171C41.4293 27.1152 41.5686 27.0594 41.7079 27.0036L44.5497 34.1452C44.7726 34.7032 45.3019 35.0658 45.887 35.0658C46.3606 35.0658 46.7785 34.8426 47.0571 34.48C47.3357 34.1173 47.4193 33.6431 47.28 33.1967L44.8562 25.1345C45.692 24.465 46.3885 23.6838 46.9178 22.819C48.0322 21.0336 48.4501 18.9971 48.868 16.9886C49.0073 16.3469 49.1466 15.7053 49.2859 15.0637C49.5088 14.171 49.7874 13.2783 50.0939 12.4135L52.8799 9.93062C53.7714 9.14951 54.6629 8.3405 55.3316 7.3362C56.1674 6.16453 56.4739 4.88127 56.2788 3.73749ZM11.006 33.8105C10.9224 34.0336 10.6995 34.201 10.4488 34.201C10.2538 34.201 10.0866 34.1173 9.97518 33.9499C9.86374 33.7826 9.83588 33.5873 9.8916 33.4199L12.2319 25.6924C12.7333 26.0551 13.2905 26.362 13.9035 26.6409L11.006 33.8105ZM14.3214 37.6881C14.2099 37.9671 13.9313 38.1624 13.6249 38.1624C13.3741 38.1624 13.1512 38.0508 13.0119 37.8555C12.8726 37.6602 12.8169 37.4092 12.9005 37.186L15.8537 27.422C16.6059 27.6452 17.386 27.8405 18.1939 27.98L14.3214 37.6881ZM43.4353 37.186C43.5189 37.4092 43.4631 37.6602 43.3238 37.8555C43.1845 38.0508 42.9617 38.1624 42.7109 38.1624C42.4045 38.1624 42.1259 37.9671 42.0144 37.6881L38.1418 27.98C38.9498 27.8405 39.7299 27.6731 40.4821 27.422L43.4353 37.186ZM46.472 33.4199C46.5278 33.6152 46.4999 33.8105 46.3885 33.9499C46.277 34.1173 46.1099 34.201 45.9148 34.201C45.6641 34.201 45.4412 34.0615 45.3576 33.8105L42.488 26.6409C43.0731 26.362 43.6303 26.0272 44.1596 25.6924L46.472 33.4199ZM48.5058 14.8684C48.3387 15.51 48.1994 16.1796 48.0601 16.8212C47.6422 18.7461 47.2243 20.7268 46.2213 22.3727C44.5218 25.0787 41.1229 26.8641 36.8881 27.3105C34.7708 27.5336 32.5977 27.422 30.3967 27.2826C29.6723 27.2268 28.9201 27.2268 28.1679 27.2268C27.4157 27.2268 26.6913 27.2547 25.9391 27.2826C23.7103 27.422 21.565 27.5057 19.4476 27.3105C15.2129 26.892 11.8139 25.0787 10.1145 22.3727C9.08365 20.7268 8.66575 18.7461 8.2757 16.8212C8.1364 16.1796 7.9971 15.51 7.82994 14.8684C7.7185 14.422 7.5792 13.9757 7.46776 13.5293L10.5324 16.2632C11.1453 16.8212 11.7861 17.3791 12.4269 17.9371L12.7333 18.1881L13.0677 18.4671C13.1234 18.5229 13.207 18.5787 13.2627 18.6345C13.4298 18.774 13.6249 18.9414 13.792 19.0808C14.0706 19.304 14.3492 19.5551 14.6557 19.7783L14.6836 19.8062C14.9064 20.0014 15.1572 20.1688 15.3801 20.3641C15.4636 20.4199 15.5472 20.5036 15.6308 20.5594C15.8258 20.7268 16.0487 20.8662 16.2437 21.0057C16.2994 21.0615 16.3552 21.0894 16.4109 21.1452C16.6616 21.3405 16.9402 21.5079 17.191 21.6753C17.2745 21.7311 17.3581 21.7868 17.4417 21.8426C17.6925 22.01 17.9432 22.1774 18.1939 22.3169C18.2218 22.3448 18.2775 22.3727 18.3054 22.3727C18.6118 22.5401 18.8904 22.7074 19.1969 22.8748C19.2805 22.9027 19.3362 22.9585 19.4198 22.9864C19.7262 23.1538 20.0606 23.3212 20.367 23.4607C22.7909 24.6323 25.354 25.2461 27.75 25.2461C27.8893 25.2461 28.0007 25.2461 28.1122 25.2461C30.6196 25.3019 33.322 24.6881 35.8852 23.4607C36.2195 23.2933 36.5259 23.1538 36.8324 22.9864C36.916 22.9585 36.9717 22.9027 37.0553 22.8748C37.3618 22.7074 37.6682 22.5401 37.9468 22.3727C37.9747 22.3448 38.0304 22.3169 38.0583 22.3169C38.309 22.1495 38.5597 22.01 38.8105 21.8426C38.8941 21.7868 38.9776 21.7311 39.0612 21.6753C39.3398 21.5079 39.5906 21.3126 39.8413 21.1452C39.897 21.1173 39.9528 21.0615 40.0085 21.0336C40.2314 20.8662 40.4542 20.7268 40.6493 20.5594C40.7328 20.5036 40.8164 20.4478 40.9 20.392C41.3458 20.0572 41.7637 19.7225 42.1816 19.3877C42.2652 19.3319 42.3209 19.2761 42.4045 19.1924C42.6831 18.9693 42.9617 18.7461 43.2124 18.5229L43.5746 18.216L43.8532 17.9929C44.494 17.4349 45.1348 16.877 45.7477 16.319L48.8123 13.5851C48.7287 13.9757 48.6173 14.422 48.5058 14.8684ZM14.2378 18.3834C16.6616 17.8255 19.1412 17.3791 21.5929 16.9886C25.9669 16.319 30.3688 16.319 34.7429 16.9886C37.1946 17.3512 39.6742 17.8255 42.098 18.3834C40.2592 19.9177 38.0861 21.5637 35.5508 22.7632C33.0991 23.9349 30.536 24.5208 28.14 24.465C25.7441 24.5208 23.2088 23.9349 20.7571 22.7632C18.2497 21.5637 16.0766 19.9177 14.2378 18.3834ZM54.6908 6.88985C54.0779 7.81045 53.2142 8.59157 52.3784 9.34479L45.2462 15.6774C44.4661 16.3748 43.686 17.0444 42.9059 17.7418C40.2592 17.128 37.5568 16.598 34.8822 16.2074C30.4246 15.5379 25.9391 15.5379 21.4814 16.2074C18.8069 16.6259 16.1044 17.128 13.4577 17.7418C12.6498 17.0723 11.8697 16.3748 11.1174 15.6774L3.95737 9.31689C3.12157 8.56367 2.2579 7.81045 1.64498 6.86196C0.97633 5.85766 0.725588 4.79758 0.892749 3.87698C1.22707 2.03577 3.23301 0.975689 5.01606 0.864101C5.15536 0.836204 5.32252 0.836204 5.46182 0.836204C7.02199 0.836204 8.61003 1.33835 10.1423 1.8405C10.3374 1.89629 10.5602 1.97998 10.7553 2.03577C16.383 3.79329 22.2337 4.68599 28.1679 4.65809C34.1021 4.65809 39.9528 3.79329 45.5805 2.03577C45.7755 1.97998 45.9984 1.89629 46.1934 1.8405C47.8651 1.31045 49.6202 0.752513 51.3476 0.864101C53.1306 0.975689 55.1087 2.06367 55.4709 3.90487C55.6102 4.82547 55.3594 5.88556 54.6908 6.88985Z" fill="#B78E56"/>
<path d="M24.8234 7.69964C21.118 7.28119 17.4405 6.44428 13.9301 5.18891C13.0107 4.85415 12.0913 4.49149 11.1162 4.3799C10.1411 4.24041 9.11027 4.3799 8.30232 4.93784C7.49437 5.49578 7.04861 6.58376 7.35507 7.50436C7.99586 6.16531 9.69533 5.49578 11.1719 5.49578C12.6485 5.49578 14.0694 5.99792 15.4903 6.41638C18.4713 7.28119 21.7031 7.61595 24.8234 7.69964Z" fill="#FAFAFA"/>
<path d="M17.6912 20.4762C17.7191 20.1135 17.8862 19.7787 18.137 19.4719C18.3877 19.1929 18.6942 18.9697 19.0285 18.8023C19.3628 18.635 19.725 18.5234 20.0872 18.4397C20.4494 18.356 20.7837 18.3281 21.1459 18.2723C21.8424 18.1886 22.5667 18.1328 23.2632 18.1328C23.9597 18.1328 24.6841 18.1328 25.3806 18.2165C24.6841 18.3839 23.9876 18.4676 23.2911 18.5792L21.2016 18.8302C20.5051 18.9139 19.8086 18.9697 19.1956 19.1929C18.5549 19.4161 17.9977 19.8066 17.6912 20.4762Z" fill="white"/>
</g>
<path d="M63.8114 28.3447V25.7644L65.3449 25.5432L72.1718 6.8762H76.5805L83.3631 25.5432L84.8966 25.7644V28.3447H77.5831V25.7644L79.0724 25.499L78.1287 22.55H70.5793L69.6356 25.499L71.1249 25.7644V28.3447H63.8114ZM71.5967 19.3798H77.1113L74.6047 12.0222L74.3982 11.3734H74.3098L74.0886 12.0664L71.5967 19.3798ZM86.7544 28.3447V25.7644L88.8187 25.322V15.4282L86.5333 14.9859V12.3908H92.8293L92.9915 14.3666L93.021 14.7205C93.8074 12.9707 94.987 12.0959 96.5598 12.0959C96.8153 12.0959 97.0906 12.1155 97.3855 12.1549C97.6902 12.1942 97.9654 12.2532 98.2112 12.3318L97.7541 16.2982L95.6161 16.1802C95.0066 16.1507 94.5102 16.2539 94.1269 16.4899C93.7533 16.7258 93.4191 17.0649 93.1242 17.5072V25.322L95.1885 25.7644V28.3447H86.7544ZM106.704 28.6544C105.171 28.6544 103.844 28.3103 102.723 27.6222C101.612 26.9341 100.757 25.9855 100.158 24.7765C99.5579 23.5674 99.2581 22.1765 99.2581 20.6037V20.1613C99.2581 18.5984 99.5628 17.2124 100.172 16.0033C100.782 14.7844 101.642 13.8309 102.753 13.1428C103.863 12.4448 105.171 12.0959 106.675 12.0959C108.1 12.0959 109.334 12.322 110.376 12.7741C111.418 13.2165 112.263 13.7326 112.912 14.3224L112.882 18.8933H109.638L109.063 16.0475C108.828 15.8116 108.528 15.6199 108.164 15.4725C107.8 15.325 107.432 15.2513 107.058 15.2513C105.879 15.2513 104.999 15.6887 104.419 16.5636C103.849 17.4286 103.564 18.6279 103.564 20.1613V20.6037C103.564 22.2453 103.873 23.4494 104.493 24.2162C105.112 24.9731 105.859 25.3515 106.734 25.3515C107.491 25.3515 108.095 25.1549 108.547 24.7617C109.009 24.3587 109.329 23.7935 109.506 23.0661H113.177L113.221 23.1545C112.966 24.8551 112.337 26.1969 111.334 27.1799C110.331 28.1629 108.788 28.6544 106.704 28.6544ZM114.917 28.3447V25.7644L116.996 25.322V8.38017L114.696 7.93783V5.34273H121.287V14.4256C121.788 13.6883 122.408 13.1182 123.145 12.7152C123.892 12.3023 124.737 12.0959 125.681 12.0959C127.283 12.0959 128.551 12.6316 129.485 13.7031C130.429 14.7647 130.901 16.4112 130.901 18.6426V25.322L132.965 25.7644V28.3447H124.737V25.7644L126.595 25.322V18.6131C126.595 17.463 126.379 16.6471 125.946 16.1655C125.514 15.6838 124.88 15.443 124.044 15.443C122.835 15.443 121.916 15.9148 121.287 16.8585V25.322L123.145 25.7644V28.3447H114.917ZM139.689 28.6544C138.106 28.6544 136.848 28.2317 135.914 27.3863C134.98 26.5311 134.513 25.3712 134.513 23.9065C134.513 22.4124 135.118 21.1935 136.327 20.2498C137.546 19.3061 139.335 18.8343 141.694 18.8343H143.802V17.6547C143.802 16.888 143.576 16.2687 143.124 15.7968C142.682 15.3152 142.013 15.0743 141.119 15.0743C140.657 15.0743 140.239 15.1333 139.865 15.2513C139.502 15.3594 139.172 15.5167 138.878 15.7231L138.538 17.8316H135.442L135.383 13.6883C136.219 13.2165 137.123 12.8331 138.096 12.5382C139.069 12.2433 140.155 12.0959 141.355 12.0959C143.439 12.0959 145.085 12.5825 146.294 13.5556C147.503 14.5288 148.108 15.9099 148.108 17.6989V24.2751C148.108 24.4914 148.108 24.7027 148.108 24.9092C148.118 25.1156 148.137 25.322 148.167 25.5285L149.833 25.7644V28.3447H144.495C144.387 28.0695 144.279 27.7746 144.171 27.46C144.063 27.1455 143.984 26.8309 143.935 26.5164C143.424 27.1651 142.819 27.6861 142.121 28.0793C141.433 28.4627 140.622 28.6544 139.689 28.6544ZM140.839 25.4695C141.438 25.4695 142.003 25.3368 142.534 25.0714C143.075 24.7961 143.498 24.4373 143.802 23.995V21.4736H141.679C140.735 21.4736 140.018 21.6899 139.526 22.1224C139.045 22.5549 138.804 23.0759 138.804 23.6853C138.804 24.2555 138.981 24.6978 139.335 25.0124C139.698 25.3171 140.2 25.4695 140.839 25.4695Z" fill="white"/>
<defs>
<clipPath id="clip0_40_2">
<rect width="56.3333" height="39" fill="white"/>
</clipPath>
</defs>
</svg>
