<svg width="50" height="50" viewBox="0 0 50 50" fill="none" xmlns="http://www.w3.org/2000/svg">
<path d="M48.288 27.6394C48.1869 26.7937 47.8996 25.9808 47.448 25.2586C47.4792 25.1759 47.4968 25.0885 47.4998 25V1.66664C47.4998 1.20659 47.1268 0.833511 46.6667 0.833511C46.2063 0.833511 45.8332 1.20659 45.8332 1.66664V6.20651C43.2686 3.89252 37.1483 0 25 0C12.8517 0 6.73141 3.89252 4.16679 6.20689V1.66664C4.16679 1.20659 3.79372 0.833511 3.33328 0.833511C2.87323 0.833511 2.50015 1.20659 2.50015 1.66664V25C2.5032 25.0885 2.52075 25.1755 2.55203 25.2583C2.10037 25.9804 1.81313 26.7937 1.71204 27.6394C0.69313 27.9762 0.00343322 28.9268 0 29.9999V43.3334C0.00152588 44.7136 1.12 45.8317 2.50015 45.8332H3.33328C3.33519 47.6734 4.82635 49.1646 6.66656 49.1665H8.33321C10.1734 49.1646 11.6646 47.6734 11.6665 45.8332H38.3335C38.335 47.6734 39.8266 49.165 41.6668 49.1665H43.3334C45.1736 49.165 46.6648 47.6734 46.6667 45.8332H47.4998C48.88 45.8317 49.9985 44.7136 50 43.3334V29.9999C49.9966 28.9268 49.3069 27.9762 48.288 27.6394ZM4.16679 11.948C5.07393 10.8315 10.5125 4.99992 25 4.99992C39.4917 4.99992 44.9287 10.8337 45.8332 11.9476V23.5531C44.857 22.8676 43.6932 22.4995 42.4999 22.4998V18.3334C42.4973 16.0332 40.6334 14.1693 38.3335 14.1666H28.3333C27.0168 14.1701 25.7797 14.7984 25 15.8592C24.2203 14.7984 22.9832 14.1701 21.6667 14.1666H11.6665C9.36661 14.1693 7.50275 16.0332 7.50008 18.3334V22.4998C6.30684 22.4995 5.14297 22.8672 4.16679 23.5531V11.948ZM9.16672 22.4998V18.3334C9.16824 16.9533 10.2867 15.8348 11.6665 15.8333H21.6667C23.0469 15.8348 24.165 16.9533 24.1665 18.3334V22.4998H9.16672ZM25.8335 18.3334C25.835 16.9533 26.9531 15.8348 28.3333 15.8333H38.3335C39.7133 15.8348 40.8318 16.9533 40.8333 18.3334V22.4998H25.8335V18.3334ZM7.50008 24.1665H42.4999C44.479 24.1692 46.1842 25.5615 46.5828 27.5002H3.41721C3.81546 25.5615 5.52101 24.1692 7.50008 24.1665ZM25 1.66664C39.4917 1.66664 44.9287 7.50046 45.8332 8.61435V9.53979C43.2686 7.2258 37.1483 3.33328 25 3.33328C12.8517 3.33328 6.73141 7.22618 4.16679 9.54018V8.61473C5.07393 7.49817 10.5125 1.66664 25 1.66664ZM8.33321 47.4998H6.66656C5.74646 47.4991 5.00107 46.7533 4.99992 45.8332H9.99985C9.99908 46.7533 9.25331 47.4991 8.33321 47.4998ZM43.3334 47.4998H41.6668C40.7467 47.4987 40.0013 46.7533 40.0002 45.8332H45.0001C44.9989 46.7533 44.2532 47.4987 43.3334 47.4998ZM48.3334 43.3334C48.333 43.7935 47.9603 44.1666 47.4998 44.1666H2.50015C2.0401 44.1662 1.66702 43.7935 1.66664 43.3334V29.9999C1.66702 29.5399 2.0401 29.1672 2.50015 29.1668H47.4998C47.9603 29.1668 48.333 29.5399 48.3334 29.9999V43.3334Z" fill="#B78E56"/>
<path d="M12.5 18.3334C12.0399 18.3334 11.6665 18.7065 11.6665 19.1665V20C11.6665 20.4601 12.0399 20.8331 12.5 20.8331C12.96 20.8331 13.3335 20.4601 13.3335 20V19.1665C13.3335 18.7065 12.96 18.3334 12.5 18.3334Z" fill="#B78E56"/>
<path d="M20.8332 18.3334C20.3732 18.3334 20.0001 18.7065 20.0001 19.1665V20C20.0001 20.4601 20.3732 20.8331 20.8332 20.8331C21.2937 20.8331 21.6667 20.4601 21.6667 20V19.1665C21.6667 18.7065 21.2937 18.3334 20.8332 18.3334Z" fill="#B78E56"/>
<path d="M29.1668 18.3334C28.7064 18.3334 28.3333 18.7065 28.3333 19.1665V20C28.3333 20.4601 28.7064 20.8331 29.1668 20.8331C29.6269 20.8331 30 20.4601 30 20V19.1665C30 18.7065 29.6269 18.3334 29.1668 18.3334Z" fill="#B78E56"/>
<path d="M37.5 18.3334C37.0399 18.3334 36.6665 18.7065 36.6665 19.1665V20C36.6665 20.4601 37.0399 20.8331 37.5 20.8331C37.96 20.8331 38.3335 20.4601 38.3335 20V19.1665C38.3335 18.7065 37.96 18.3334 37.5 18.3334Z" fill="#B78E56"/>
<path d="M5.83347 30.8334H4.16682C3.70639 30.8334 3.33331 31.2065 3.33331 31.6665C3.33331 32.1269 3.70639 32.5 4.16682 32.5H5.83347C6.29352 32.5 6.6666 32.1269 6.6666 31.6665C6.6666 31.2065 6.29352 30.8334 5.83347 30.8334Z" fill="#B78E56"/>
<path d="M33.3332 30.8334H9.16673C8.7063 30.8334 8.33322 31.2065 8.33322 31.6665C8.33322 32.1269 8.7063 32.5 9.16673 32.5H33.3332C33.7937 32.5 34.1667 32.1269 34.1667 31.6665C34.1667 31.2065 33.7937 30.8334 33.3332 30.8334Z" fill="#B78E56"/>
</svg>
