<svg width="52" height="53" viewBox="0 0 52 53" fill="none" xmlns="http://www.w3.org/2000/svg">
<path d="M3.44187 10.774C3.61576 10.774 3.78252 10.705 3.90548 10.582C4.02844 10.4591 4.09751 10.2923 4.09751 10.1184V9.85614C4.09751 9.68226 4.02844 9.51549 3.90548 9.39253C3.78252 9.26958 3.61576 9.2005 3.44187 9.2005C3.26798 9.2005 3.10121 9.26958 2.97826 9.39253C2.8553 9.51549 2.78622 9.68226 2.78622 9.85614V10.1184C2.78622 10.2923 2.8553 10.4591 2.97826 10.582C3.10121 10.705 3.26798 10.774 3.44187 10.774Z" fill="#B78E56"/>
<path d="M48.5612 25.0231H24.4225C24.2486 25.0231 24.0818 25.0921 23.9589 25.2151C23.8359 25.338 23.7668 25.5048 23.7668 25.6787C23.7668 25.8526 23.8359 26.0194 23.9589 26.1423C24.0818 26.2653 24.2486 26.3343 24.4225 26.3343H48.5612C48.9322 26.3343 49.288 26.4817 49.5504 26.7441C49.8127 27.0064 49.9601 27.3622 49.9601 27.7332C49.9601 28.1042 49.8127 28.46 49.5504 28.7224C49.288 28.9847 48.9322 29.1321 48.5612 29.1321H22.4556V7.88923H22.8542C23.4872 7.88853 24.0941 7.63676 24.5417 7.18915C24.9893 6.74154 25.2411 6.13465 25.2418 5.50163V3.21737C25.2411 2.58462 24.9895 1.97797 24.5423 1.5304C24.095 1.08284 23.4885 0.830883 22.8558 0.829773H2.38759C1.75458 0.830467 1.14769 1.08224 0.700077 1.52985C0.252466 1.97746 0.000694174 2.58435 0 3.21737V5.50111C0.000694174 6.13412 0.252466 6.74102 0.700077 7.18863C1.14769 7.63624 1.75458 7.88801 2.38759 7.8887H17.0247C17.1986 7.8887 17.3654 7.81963 17.4883 7.69667C17.6113 7.57371 17.6804 7.40695 17.6804 7.23306C17.6804 7.05917 17.6113 6.8924 17.4883 6.76945C17.3654 6.64649 17.1986 6.57741 17.0247 6.57741H2.38759C2.10223 6.57714 1.82862 6.46365 1.62684 6.26186C1.42505 6.06008 1.31157 5.78648 1.31129 5.50111V3.21737C1.31157 2.932 1.42505 2.6584 1.62684 2.45661C1.82862 2.25483 2.10223 2.14134 2.38759 2.14106H22.8558C23.1411 2.14134 23.4147 2.25483 23.6165 2.45661C23.8183 2.6584 23.9318 2.932 23.9321 3.21737V5.50111C23.9319 5.78657 23.8185 6.0603 23.6167 6.2622C23.4149 6.4641 23.1412 6.57766 22.8558 6.57794H19.5162C19.3423 6.57794 19.1755 6.64702 19.0526 6.76997C18.9296 6.89293 18.8605 7.05969 18.8605 7.23358C18.8605 7.40747 18.9296 7.57424 19.0526 7.69719C19.1755 7.82015 19.3423 7.88923 19.5162 7.88923H21.1422V29.1321H13.3096C13.1357 29.1321 12.9689 29.2012 12.846 29.3241C12.723 29.4471 12.6539 29.6139 12.6539 29.7878C12.6539 29.9616 12.723 30.1284 12.846 30.2514C12.9689 30.3743 13.1357 30.4434 13.3096 30.4434H46.2061C46.0339 33.8139 44.5747 36.9897 42.1296 39.3159C39.6844 41.6421 36.4398 42.9412 33.0649 42.9452H25.9415C25.7676 42.9452 25.6008 43.0143 25.4779 43.1373C25.3549 43.2602 25.2858 43.427 25.2858 43.6009C25.2858 43.7748 25.3549 43.9415 25.4779 44.0645C25.6008 44.1874 25.7676 44.2565 25.9415 44.2565H27.7972L25.92 51.2751C25.8969 51.3585 25.8906 51.4457 25.9013 51.5316C25.9121 51.6175 25.9398 51.7004 25.9828 51.7755C26.0258 51.8507 26.0833 51.9165 26.1519 51.9694C26.2205 52.0222 26.2988 52.0609 26.3825 52.0833C26.4661 52.1056 26.5533 52.1112 26.6391 52.0997C26.7249 52.0882 26.8076 52.0598 26.8824 52.0162C26.9571 51.9725 27.0225 51.9145 27.0748 51.8455C27.127 51.7764 27.165 51.6977 27.1867 51.6139L29.1547 44.2555H33.0649C36.7873 44.251 40.3651 42.8137 43.0561 40.2418C45.747 37.6698 47.3446 34.1607 47.5174 30.4423H48.5612C49.2734 30.4324 49.9531 30.1426 50.4532 29.6354C50.9533 29.1283 51.2337 28.4447 51.2337 27.7324C51.2337 27.0202 50.9533 26.3366 50.4532 25.8294C49.9531 25.3223 49.2734 25.0324 48.5612 25.0225V25.0231Z" fill="#B78E56"/>
<path d="M23.6247 42.9452H10.5999C10.1711 42.9447 9.75996 42.7741 9.45673 42.4708C9.15349 42.1676 8.98288 41.7564 8.98233 41.3276V30.4434H10.687C10.8609 30.4434 11.0277 30.3743 11.1506 30.2513C11.2736 30.1284 11.3426 29.9616 11.3426 29.7877C11.3426 29.6138 11.2736 29.4471 11.1506 29.3241C11.0277 29.2012 10.8609 29.1321 10.687 29.1321H5.97161C5.47474 29.1315 4.99838 28.9339 4.64704 28.5826C4.29569 28.2312 4.09807 27.7549 4.09751 27.258V12.2165C4.09751 12.0426 4.02844 11.8758 3.90548 11.7529C3.78252 11.6299 3.61576 11.5608 3.44187 11.5608C3.26798 11.5608 3.10121 11.6299 2.97826 11.7529C2.8553 11.8758 2.78622 12.0426 2.78622 12.2165V27.2575C2.7872 28.102 3.12311 28.9116 3.72027 29.5088C4.31744 30.106 5.12709 30.4419 5.97161 30.4429H7.67104V41.3276C7.67201 42.1041 7.9809 42.8485 8.52996 43.3976C9.07903 43.9466 9.82344 44.2555 10.5999 44.2565H23.6247C23.7986 44.2565 23.9654 44.1874 24.0883 44.0645C24.2113 43.9415 24.2803 43.7747 24.2803 43.6009C24.2803 43.427 24.2113 43.2602 24.0883 43.1372C23.9654 43.0143 23.7986 42.9452 23.6247 42.9452Z" fill="#B78E56"/>
<path d="M11.4738 45.2169C11.2999 45.2169 11.1331 45.286 11.0102 45.4089C10.8872 45.5319 10.8181 45.6986 10.8181 45.8725V51.4455C10.8181 51.6194 10.8872 51.7862 11.0102 51.9091C11.1331 52.0321 11.2999 52.1012 11.4738 52.1012C11.6477 52.1012 11.8144 52.0321 11.9374 51.9091C12.0604 51.7862 12.1294 51.6194 12.1294 51.4455V45.8725C12.1294 45.6986 12.0604 45.5319 11.9374 45.4089C11.8144 45.286 11.6477 45.2169 11.4738 45.2169Z" fill="#B78E56"/>
<path d="M41.4551 35.0675C40.5908 36.4635 39.3834 37.6149 37.9479 38.4119C36.5124 39.2089 34.8967 39.6249 33.2548 39.6203C33.0809 39.6203 32.9142 39.6894 32.7912 39.8123C32.6682 39.9353 32.5992 40.1021 32.5992 40.2759C32.5992 40.4498 32.6682 40.6166 32.7912 40.7396C32.9142 40.8625 33.0809 40.9316 33.2548 40.9316C35.1194 40.9369 36.9543 40.4645 38.5846 39.5595C40.2148 38.6544 41.5861 37.3468 42.5676 35.7614C42.6569 35.614 42.6846 35.4372 42.6446 35.2695C42.6046 35.1018 42.5002 34.9566 42.3539 34.8653C42.2076 34.7741 42.0312 34.7441 41.863 34.7819C41.6948 34.8198 41.5482 34.9224 41.4551 35.0675Z" fill="#B78E56"/>
<path d="M42.6882 34.1942C42.7689 34.2244 42.8547 34.2383 42.9408 34.2352C43.0269 34.2322 43.1115 34.2122 43.1899 34.1764C43.2682 34.1406 43.3387 34.0896 43.3974 34.0266C43.456 33.9635 43.5016 33.8894 43.5316 33.8087C43.5647 33.72 43.5972 33.6298 43.6281 33.5401C43.6586 33.4582 43.6724 33.371 43.6686 33.2836C43.6649 33.1963 43.6437 33.1105 43.6063 33.0315C43.5689 32.9525 43.5161 32.8817 43.451 32.8234C43.3859 32.765 43.3098 32.7203 43.2271 32.6918C43.1444 32.6633 43.0569 32.6517 42.9697 32.6575C42.8824 32.6634 42.7973 32.6866 42.7191 32.7259C42.641 32.7652 42.5715 32.8196 42.5148 32.8862C42.458 32.9527 42.4152 33.0299 42.3887 33.1132C42.3614 33.1929 42.3329 33.2721 42.3032 33.3508C42.2426 33.5137 42.2491 33.694 42.3212 33.8521C42.3934 34.0103 42.5254 34.1333 42.6882 34.1942Z" fill="#B78E56"/>
</svg>
