<svg width="33" height="53" viewBox="0 0 33 53" fill="none" xmlns="http://www.w3.org/2000/svg">
<path d="M31.2632 46.895V14.7632C31.2632 6.60978 24.6534 0 16.5 0C8.3466 0 1.73682 6.60978 1.73682 14.7632V46.895C0.777972 46.8962 0.0011926 47.6729 0 48.6318V51.2368C0 51.7166 0.388787 52.1054 0.868609 52.1054H32.1318C32.6112 52.1054 33 51.7166 33 51.2368V48.6318C32.9988 47.6729 32.222 46.8962 31.2632 46.895ZM3.47364 14.7632C3.47364 7.56903 9.30585 1.73682 16.5 1.73682C23.6942 1.73682 29.5264 7.56903 29.5264 14.7632V46.895H3.47364V14.7632ZM31.2632 50.3686H1.73682V48.6318H31.2632V50.3686Z" fill="#B78E56"/>
<path d="M26.0527 27.7896H6.9473C5.98885 27.7907 5.21167 28.5679 5.21048 29.5264V43.4213C5.21167 44.3798 5.98885 45.1566 6.9473 45.1582H26.0527C27.0116 45.1566 27.7884 44.3798 27.7896 43.4213V29.5264C27.7884 28.5679 27.0116 27.7907 26.0527 27.7896ZM16.5 36.4737C17.4593 36.4737 18.2368 37.2512 18.2368 38.2105C18.2368 39.1697 17.4593 39.9477 16.5 39.9477C15.5408 39.9477 14.7632 39.1697 14.7632 38.2105C14.7644 37.252 15.5416 36.4752 16.5 36.4737ZM6.9473 43.4213V29.5264H15.6318V34.8605C13.9379 35.2978 12.8336 36.926 13.0542 38.6613C13.2744 40.3965 14.7509 41.6972 16.5 41.6972C18.2492 41.6972 19.7256 40.3965 19.9462 38.6613C20.1665 36.926 19.0621 35.2978 17.3686 34.8605V29.5264H26.0527L26.0543 43.4213H6.9473Z" fill="#B78E56"/>
<path d="M26.2773 9.1187C26.2646 9.09604 26.2428 9.08372 26.228 9.06265C25.2493 7.40016 23.8639 6.01436 22.2014 5.03604C22.1804 5.02133 22.1676 4.99907 22.145 4.98595C22.1267 4.97521 22.106 4.97561 22.0873 4.96647C18.6284 2.97602 14.3716 2.97602 10.9127 4.96647C10.894 4.97561 10.8737 4.97521 10.8554 4.98595C10.8324 4.99907 10.8197 5.02133 10.7986 5.03604C9.13651 6.01436 7.75072 7.40016 6.77239 9.06225C6.75768 9.08332 6.73581 9.09604 6.72269 9.1187C6.71196 9.13659 6.71236 9.15726 6.70361 9.17594C4.71277 12.6349 4.71277 16.8917 6.70361 20.351C6.71196 20.3697 6.71196 20.3899 6.72269 20.4082C6.74456 20.4408 6.76881 20.4722 6.79505 20.5017C7.77218 22.1474 9.14924 23.5197 10.7986 24.4905C10.8197 24.5056 10.8324 24.5275 10.8554 24.541C10.8813 24.5529 10.9079 24.564 10.935 24.5736C14.3828 26.5461 18.6173 26.5461 22.0655 24.5736C22.0925 24.564 22.1187 24.5529 22.145 24.541C22.1676 24.5275 22.1804 24.5056 22.2014 24.4905C23.8508 23.5197 25.2279 22.1474 26.205 20.5017C26.2312 20.4722 26.2555 20.4408 26.2773 20.4082C26.2881 20.3899 26.2877 20.3697 26.2968 20.351C28.2873 16.8917 28.2873 12.6349 26.2968 9.17594C26.2877 9.15726 26.2881 9.13659 26.2773 9.1187ZM22.0035 22.5581L21.5944 21.8497C21.4394 21.581 21.1527 21.4156 20.8423 21.4156C20.5318 21.4156 20.2452 21.581 20.0901 21.8497C19.9347 22.1184 19.9347 22.4496 20.0901 22.7183L20.4992 23.4271C19.5121 23.8866 18.4527 24.1725 17.3686 24.2719V22.5792C17.3686 22.0993 16.9798 21.7106 16.5 21.7106C16.0206 21.7106 15.6318 22.0993 15.6318 22.5792V24.2719C14.5473 24.1725 13.4883 23.8866 12.5012 23.4271L12.9103 22.7183C13.0653 22.4496 13.0653 22.1184 12.9103 21.8497C12.7549 21.581 12.4682 21.4156 12.1578 21.4156C11.8477 21.4156 11.5607 21.581 11.4056 21.8497L10.997 22.5581C10.1089 21.9292 9.33409 21.1544 8.70519 20.2663L9.4136 19.8577C9.82902 19.6179 9.97133 19.0868 9.73162 18.671C9.49191 18.2556 8.96041 18.1133 8.54499 18.353L7.83658 18.7624C7.37664 17.775 7.09081 16.716 6.99143 15.6319H8.68412C9.16394 15.6319 9.55273 15.2431 9.55273 14.7633C9.55273 14.2838 9.16394 13.8951 8.68412 13.8951H6.99143C7.09081 12.8106 7.37664 11.7516 7.83658 10.7645L8.54499 11.1735C8.81372 11.3286 9.14486 11.3286 9.4136 11.1731C9.68233 11.0181 9.8481 10.7315 9.8481 10.421C9.8477 10.1109 9.68233 9.82392 9.4136 9.66888L8.70519 9.26022C9.33409 8.37213 10.1089 7.59734 10.997 6.96844L11.4056 7.67685C11.5607 7.94558 11.8477 8.11095 12.1578 8.11095C12.4682 8.11135 12.7549 7.94558 12.9103 7.67685C13.0653 7.40812 13.0653 7.07697 12.9103 6.80824L12.5012 6.09983C13.4883 5.63989 14.5473 5.35406 15.6318 5.25468V6.94737C15.6318 7.4272 16.0206 7.81598 16.5 7.81598C16.9798 7.81598 17.3686 7.4272 17.3686 6.94737V5.25468C18.4527 5.35406 19.5121 5.63989 20.4992 6.09983L20.0901 6.80824C19.85 7.22366 19.9923 7.75516 20.4082 7.99487C20.8236 8.23459 21.3547 8.09227 21.5944 7.67685L22.0035 6.96844C22.8912 7.59734 23.6659 8.37213 24.2948 9.26022L23.5864 9.66888C23.3177 9.82392 23.1523 10.1109 23.1523 10.421C23.1523 10.7315 23.3177 11.0181 23.5864 11.1731C23.8552 11.3286 24.1863 11.3286 24.455 11.1735L25.1638 10.7645C25.6234 11.7516 25.9092 12.8106 26.0086 13.8951H24.3159C23.8361 13.8951 23.4473 14.2838 23.4473 14.7633C23.4473 15.2431 23.8361 15.6319 24.3159 15.6319H26.0086C25.9092 16.716 25.6234 17.775 25.1638 18.7624L24.455 18.353C24.1863 18.198 23.8552 18.198 23.5864 18.3534C23.3177 18.5084 23.1523 18.795 23.1523 19.1055C23.1523 19.416 23.3177 19.7026 23.5864 19.8577L24.2948 20.2663C23.6659 21.1544 22.8912 21.9292 22.0035 22.5581Z" fill="#B78E56"/>
<path d="M19.1054 13.895H17.3686V10.4209C17.3686 9.94152 16.9798 9.55273 16.5 9.55273C16.0205 9.55273 15.6317 9.94152 15.6317 10.4209V14.7632C15.6317 15.243 16.0205 15.6318 16.5 15.6318H19.1054C19.5848 15.6318 19.9736 15.243 19.9736 14.7632C19.9736 14.2838 19.5848 13.895 19.1054 13.895Z" fill="#B78E56"/>
</svg>
